G04*
G04 #@! TF.GenerationSoftware,Altium Limited,Altium Designer,20.0.10 (225)*
G04*
G04 Layer_Color=16711935*
%FSLAX25Y25*%
%MOIN*%
G70*
G01*
G75*
%ADD19R,0.04800X0.06800*%
%ADD24C,0.07099*%
%ADD25C,0.06706*%
%ADD26R,0.07887X0.16548*%
%ADD27R,0.16548X0.07887*%
%ADD28R,0.06115X0.06115*%
%ADD29C,0.06115*%
%ADD30R,0.06706X0.06706*%
%ADD31R,0.06706X0.06706*%
%ADD32C,0.05918*%
%ADD33P,0.09483X4X270.0*%
%ADD34P,0.09483X4X180.0*%
%ADD35R,0.05839X0.05839*%
%ADD36C,0.05839*%
%ADD67R,0.13556X0.05958*%
%ADD68R,0.04461X0.05958*%
%ADD69R,0.06800X0.04800*%
%ADD70R,0.04383X0.05603*%
%ADD71R,0.05524X0.06312*%
%ADD72R,0.05603X0.04383*%
%ADD73R,0.08800X0.06800*%
D19*
X150063Y60630D02*
D03*
X142063D02*
D03*
X58724Y90945D02*
D03*
X50724D02*
D03*
X58724Y83071D02*
D03*
X50724D02*
D03*
X50787Y99213D02*
D03*
X58787D02*
D03*
X114504Y48425D02*
D03*
X122504D02*
D03*
X76709Y86614D02*
D03*
X84709D02*
D03*
D24*
X157874Y67205D02*
D03*
Y57205D02*
D03*
X146181Y143701D02*
D03*
X156181D02*
D03*
D25*
X41535Y102953D02*
D03*
Y85236D02*
D03*
X67126Y102953D02*
D03*
Y85236D02*
D03*
X29528Y73543D02*
D03*
Y83543D02*
D03*
Y93543D02*
D03*
Y103543D02*
D03*
Y113543D02*
D03*
X94646Y29528D02*
D03*
X104646D02*
D03*
X114646D02*
D03*
X167323Y88425D02*
D03*
Y98425D02*
D03*
Y108425D02*
D03*
Y118425D02*
D03*
X32283Y164567D02*
D03*
X25212Y157496D02*
D03*
X164567Y164567D02*
D03*
X157496Y171638D02*
D03*
X164567Y32283D02*
D03*
X171638Y39355D02*
D03*
X32283Y32283D02*
D03*
X39355Y25212D02*
D03*
D26*
X79528Y165945D02*
D03*
D27*
X98425Y176969D02*
D03*
Y154134D02*
D03*
D28*
X70079Y155118D02*
D03*
D29*
X50394Y155118D02*
D03*
D30*
X29528Y123543D02*
D03*
X167323Y78425D02*
D03*
D31*
X84646Y29528D02*
D03*
D32*
X136811Y170472D02*
D03*
X124606D02*
D03*
D33*
X39355Y171638D02*
D03*
X157496Y25212D02*
D03*
D34*
X171638Y157496D02*
D03*
X25212Y39355D02*
D03*
D35*
X108504Y133071D02*
D03*
D36*
X127717D02*
D03*
D67*
X53150Y45886D02*
D03*
Y110059D02*
D03*
D68*
X62165Y72224D02*
D03*
X53150D02*
D03*
X44134D02*
D03*
X62165Y136398D02*
D03*
X53150D02*
D03*
X44134D02*
D03*
D69*
X151575Y98488D02*
D03*
Y90488D02*
D03*
Y105055D02*
D03*
Y113055D02*
D03*
X103937Y61291D02*
D03*
Y69291D02*
D03*
X114961Y61354D02*
D03*
Y69354D02*
D03*
X124803Y154268D02*
D03*
Y162268D02*
D03*
X137008Y186677D02*
D03*
Y178677D02*
D03*
X124803Y186677D02*
D03*
Y178677D02*
D03*
X154331Y128284D02*
D03*
Y136284D02*
D03*
X145669Y128284D02*
D03*
Y136284D02*
D03*
X91339Y128284D02*
D03*
Y136284D02*
D03*
X83071Y128284D02*
D03*
Y136284D02*
D03*
X136614Y162268D02*
D03*
Y154268D02*
D03*
D70*
X178484Y68504D02*
D03*
X165610D02*
D03*
D71*
X77165Y78346D02*
D03*
X84252D02*
D03*
D72*
X77165Y56555D02*
D03*
Y69429D02*
D03*
X76772Y112736D02*
D03*
Y99862D02*
D03*
X71653Y148563D02*
D03*
Y135689D02*
D03*
D73*
X86614Y111799D02*
D03*
Y100799D02*
D03*
X89370Y57492D02*
D03*
Y68492D02*
D03*
M02*
