G04*
G04 #@! TF.GenerationSoftware,Altium Limited,Altium Designer,20.0.10 (225)*
G04*
G04 Layer_Color=65535*
%FSLAX25Y25*%
%MOIN*%
G70*
G01*
G75*
%ADD10C,0.00787*%
%ADD11C,0.00800*%
%ADD12C,0.02362*%
%ADD13C,0.00984*%
%ADD14C,0.01200*%
%ADD15C,0.00197*%
%ADD16C,0.00500*%
%ADD17C,0.00600*%
%ADD18C,0.01000*%
G36*
X112926Y52348D02*
X113037Y52324D01*
X113086Y52299D01*
X113123Y52274D01*
X113135Y52262D01*
X113172Y52213D01*
X113209Y52151D01*
X113221Y52078D01*
Y52065D01*
X113209Y52016D01*
X113196Y51955D01*
X113160Y51905D01*
X113147Y51893D01*
X113110Y51868D01*
X113037Y51819D01*
X112987Y51795D01*
X112926Y51758D01*
X112914D01*
X112877Y51733D01*
X112827Y51696D01*
X112778Y51659D01*
X112704Y51598D01*
X112643Y51524D01*
X112581Y51426D01*
X112520Y51327D01*
Y51315D01*
X112508Y51290D01*
X112495Y51241D01*
X112471Y51180D01*
X112458Y51094D01*
X112434Y50995D01*
X112422Y50884D01*
Y50749D01*
Y48388D01*
X111868Y49310D01*
Y50749D01*
Y50774D01*
Y50823D01*
X111856Y50897D01*
Y50995D01*
X111806Y51217D01*
X111782Y51327D01*
X111733Y51413D01*
Y51426D01*
X111708Y51450D01*
X111671Y51499D01*
X111634Y51549D01*
X111573Y51610D01*
X111499Y51684D01*
X111401Y51758D01*
X111290Y51819D01*
X111278Y51832D01*
X111228Y51856D01*
X111179Y51893D01*
X111142Y51930D01*
Y51942D01*
X111130Y51979D01*
X111118Y52028D01*
X111105Y52090D01*
Y52102D01*
Y52114D01*
X111118Y52164D01*
X111142Y52225D01*
X111191Y52287D01*
X111204Y52299D01*
X111265Y52324D01*
X111351Y52348D01*
X111474Y52360D01*
X112864D01*
X112926Y52348D01*
D02*
G37*
G36*
X116936D02*
X117022Y52336D01*
X117108Y52287D01*
X117120Y52274D01*
X117169Y52237D01*
X117206Y52176D01*
X117218Y52090D01*
Y52078D01*
Y52053D01*
X117194Y51967D01*
X117169Y51930D01*
X117132Y51881D01*
X117083Y51832D01*
X117009Y51807D01*
X116997D01*
X116985Y51795D01*
X116923Y51770D01*
X116850Y51745D01*
X116825D01*
X116800Y51733D01*
X116788Y51721D01*
X116776Y51709D01*
X116751Y51672D01*
X116739Y51659D01*
X116727Y51610D01*
X116702Y51524D01*
X116690Y51413D01*
Y46210D01*
Y46198D01*
Y46186D01*
X116702Y46112D01*
X116714Y46026D01*
X116751Y45952D01*
Y45940D01*
X116763Y45928D01*
X116788Y45903D01*
X116800Y45891D01*
X116813D01*
X116837Y45878D01*
X116899Y45854D01*
X116948Y45841D01*
X117009Y45817D01*
X117022D01*
X117046Y45805D01*
X117120Y45755D01*
X117157Y45718D01*
X117182Y45669D01*
X117206Y45608D01*
X117218Y45534D01*
Y45509D01*
X117206Y45460D01*
X117169Y45399D01*
X117108Y45337D01*
X117095Y45325D01*
X117034Y45312D01*
X116948Y45288D01*
X116825Y45276D01*
X114217D01*
X114144Y45288D01*
X114045Y45300D01*
X113959Y45337D01*
X113947Y45349D01*
X113910Y45386D01*
X113873Y45448D01*
X113861Y45534D01*
Y45546D01*
Y45571D01*
X113885Y45657D01*
X113910Y45706D01*
X113947Y45743D01*
X113996Y45792D01*
X114057Y45817D01*
X114070D01*
X114082Y45829D01*
X114144Y45854D01*
X114217Y45878D01*
X114242D01*
X114254Y45891D01*
X114267D01*
X114279Y45903D01*
X114291Y45928D01*
X114316Y45952D01*
X114328Y45964D01*
X114353Y46014D01*
X114377Y46100D01*
X114390Y46210D01*
Y51413D01*
Y51426D01*
Y51438D01*
X114377Y51512D01*
X114365Y51598D01*
X114316Y51672D01*
Y51684D01*
X114303Y51696D01*
X114279Y51721D01*
X114254Y51733D01*
X114217Y51745D01*
X114156Y51770D01*
X114119Y51782D01*
X114057Y51807D01*
X114045D01*
X114033Y51819D01*
X113959Y51868D01*
X113922Y51905D01*
X113898Y51955D01*
X113873Y52016D01*
X113861Y52090D01*
Y52114D01*
X113873Y52164D01*
X113898Y52225D01*
X113959Y52287D01*
X113984Y52299D01*
X114033Y52324D01*
X114119Y52348D01*
X114242Y52360D01*
X116862D01*
X116936Y52348D01*
D02*
G37*
G36*
X112422Y47563D02*
Y45276D01*
X110995D01*
X107477Y51340D01*
Y51352D01*
X107465Y51376D01*
X107415Y51450D01*
X107354Y51536D01*
X107292Y51610D01*
X107280Y51622D01*
X107243Y51659D01*
X107182Y51696D01*
X107096Y51733D01*
X106899Y51807D01*
X106886D01*
X106862Y51832D01*
X106813Y51856D01*
X106776Y51893D01*
Y51905D01*
X106764Y51942D01*
X106751Y51991D01*
X106739Y52053D01*
Y52065D01*
Y52102D01*
X106751Y52151D01*
X106776Y52213D01*
X106788Y52225D01*
X106813Y52250D01*
X106850Y52287D01*
X106899Y52324D01*
X106923Y52336D01*
X106948D01*
X106997Y52348D01*
X107059D01*
X107145Y52360D01*
X109654D01*
X112422Y47563D01*
D02*
G37*
G36*
X108043Y49617D02*
Y46838D01*
Y46825D01*
Y46776D01*
X108055Y46715D01*
Y46629D01*
X108092Y46432D01*
X108116Y46333D01*
X108153Y46235D01*
X108166Y46223D01*
X108178Y46198D01*
X108203Y46149D01*
X108252Y46100D01*
X108301Y46038D01*
X108375Y45977D01*
X108449Y45915D01*
X108547Y45854D01*
X108707Y45768D01*
X108719D01*
X108731Y45755D01*
X108781Y45706D01*
X108818Y45632D01*
X108842Y45595D01*
Y45534D01*
Y45509D01*
X108830Y45460D01*
X108793Y45399D01*
X108731Y45337D01*
X108719Y45325D01*
X108658Y45312D01*
X108621Y45300D01*
X108559Y45288D01*
X108485Y45276D01*
X107120D01*
X107046Y45288D01*
X106960Y45312D01*
X106874Y45337D01*
X106800Y45386D01*
X106751Y45448D01*
X106727Y45534D01*
Y45546D01*
X106739Y45595D01*
X106751Y45632D01*
X106776Y45682D01*
X106788Y45694D01*
X106825Y45718D01*
X106886Y45768D01*
X106985Y45829D01*
X107009Y45841D01*
X107059Y45891D01*
X107145Y45952D01*
X107243Y46063D01*
X107329Y46198D01*
X107415Y46370D01*
X107465Y46592D01*
X107489Y46838D01*
Y50528D01*
X108043Y49617D01*
D02*
G37*
G36*
X105583Y52348D02*
X105669Y52336D01*
X105755Y52287D01*
X105767Y52274D01*
X105816Y52237D01*
X105853Y52176D01*
X105866Y52090D01*
Y52078D01*
Y52053D01*
X105841Y51967D01*
X105816Y51930D01*
X105780Y51881D01*
X105730Y51832D01*
X105657Y51807D01*
X105644D01*
X105632Y51795D01*
X105570Y51770D01*
X105497Y51745D01*
X105472D01*
X105447Y51733D01*
X105435Y51721D01*
X105423Y51709D01*
X105398Y51672D01*
X105386Y51659D01*
X105374Y51610D01*
X105349Y51524D01*
X105337Y51413D01*
Y46210D01*
Y46198D01*
Y46186D01*
X105349Y46112D01*
X105361Y46026D01*
X105398Y45952D01*
Y45940D01*
X105411Y45928D01*
X105435Y45903D01*
X105447Y45891D01*
X105460D01*
X105484Y45878D01*
X105546Y45854D01*
X105595Y45841D01*
X105657Y45817D01*
X105669D01*
X105693Y45805D01*
X105767Y45755D01*
X105804Y45718D01*
X105829Y45669D01*
X105853Y45608D01*
X105866Y45534D01*
Y45509D01*
X105853Y45460D01*
X105816Y45399D01*
X105755Y45337D01*
X105743Y45325D01*
X105681Y45312D01*
X105595Y45288D01*
X105472Y45276D01*
X102864D01*
X102791Y45288D01*
X102692Y45300D01*
X102606Y45337D01*
X102594Y45349D01*
X102557Y45386D01*
X102520Y45448D01*
X102508Y45534D01*
Y45546D01*
Y45571D01*
X102532Y45657D01*
X102557Y45706D01*
X102594Y45743D01*
X102643Y45792D01*
X102705Y45817D01*
X102717D01*
X102729Y45829D01*
X102791Y45854D01*
X102864Y45878D01*
X102889D01*
X102901Y45891D01*
X102914D01*
X102926Y45903D01*
X102938Y45928D01*
X102963Y45952D01*
X102975Y45964D01*
X103000Y46014D01*
X103024Y46100D01*
X103037Y46210D01*
Y51413D01*
Y51426D01*
Y51438D01*
X103024Y51512D01*
X103012Y51598D01*
X102963Y51672D01*
Y51684D01*
X102951Y51696D01*
X102926Y51721D01*
X102901Y51733D01*
X102864Y51745D01*
X102803Y51770D01*
X102766Y51782D01*
X102705Y51807D01*
X102692D01*
X102680Y51819D01*
X102606Y51868D01*
X102569Y51905D01*
X102545Y51955D01*
X102520Y52016D01*
X102508Y52090D01*
Y52114D01*
X102520Y52164D01*
X102545Y52225D01*
X102606Y52287D01*
X102631Y52299D01*
X102680Y52324D01*
X102766Y52348D01*
X102889Y52360D01*
X105509D01*
X105583Y52348D01*
D02*
G37*
G36*
X101376D02*
X101450Y52324D01*
X101524Y52299D01*
X101585Y52250D01*
X101634Y52176D01*
X101647Y52090D01*
Y52078D01*
Y52053D01*
X101622Y51967D01*
X101597Y51930D01*
X101561Y51881D01*
X101511Y51832D01*
X101438Y51807D01*
X101425D01*
X101413Y51795D01*
X101351Y51770D01*
X101278Y51745D01*
X101253D01*
X101228Y51733D01*
X101216Y51721D01*
X101204Y51709D01*
X101179Y51672D01*
X101167Y51659D01*
X101155Y51610D01*
X101130Y51524D01*
X101118Y51413D01*
Y46210D01*
Y46198D01*
Y46186D01*
X101130Y46112D01*
X101142Y46026D01*
X101179Y45952D01*
Y45940D01*
X101192Y45928D01*
X101216Y45903D01*
X101228Y45891D01*
X101241D01*
X101265Y45878D01*
X101327Y45854D01*
X101376Y45841D01*
X101438Y45817D01*
X101450D01*
X101474Y45805D01*
X101548Y45755D01*
X101585Y45718D01*
X101610Y45669D01*
X101634Y45608D01*
X101647Y45534D01*
Y45522D01*
Y45497D01*
X101622Y45448D01*
X101597Y45411D01*
X101548Y45362D01*
X101487Y45312D01*
X101388Y45288D01*
X101253Y45276D01*
X98559D01*
X98510Y45288D01*
X98400Y45300D01*
X98289Y45337D01*
X98277Y45349D01*
X98240Y45386D01*
X98190Y45460D01*
X98178Y45546D01*
Y45559D01*
Y45583D01*
X98215Y45669D01*
X98240Y45718D01*
X98277Y45768D01*
X98338Y45805D01*
X98424Y45829D01*
X98436D01*
X98461Y45841D01*
X98523Y45866D01*
X98609Y45891D01*
X98633D01*
X98658Y45903D01*
X98670D01*
X98682Y45915D01*
X98707Y45940D01*
X98732Y45964D01*
X98744Y45977D01*
X98781Y46038D01*
X98805Y46124D01*
X98818Y46260D01*
Y52360D01*
X101315D01*
X101376Y52348D01*
D02*
G37*
G36*
X97920Y49445D02*
X98375Y51007D01*
Y49285D01*
X97170Y45276D01*
X96899D01*
X94882Y51241D01*
Y51253D01*
X94857Y51290D01*
X94845Y51340D01*
X94808Y51413D01*
X94746Y51549D01*
X94697Y51598D01*
X94660Y51647D01*
X94648Y51659D01*
X94599Y51684D01*
X94525Y51721D01*
X94427Y51745D01*
X94414D01*
X94377Y51758D01*
X94316Y51782D01*
X94267Y51819D01*
X94205Y51856D01*
X94144Y51918D01*
X94107Y51979D01*
X94095Y52065D01*
Y52078D01*
Y52090D01*
X94107Y52139D01*
X94131Y52213D01*
X94181Y52274D01*
X94205Y52287D01*
X94254Y52324D01*
X94340Y52348D01*
X94463Y52360D01*
X96899D01*
X97920Y49445D01*
D02*
G37*
G36*
X95447Y48400D02*
Y46838D01*
Y46825D01*
Y46801D01*
Y46752D01*
Y46702D01*
Y46592D01*
X95460Y46543D01*
Y46493D01*
Y46481D01*
X95472Y46432D01*
X95497Y46358D01*
X95546Y46260D01*
Y46247D01*
X95570Y46223D01*
X95583Y46186D01*
X95620Y46137D01*
X95718Y46026D01*
X95841Y45928D01*
X96038Y45805D01*
X96050D01*
X96075Y45780D01*
X96136Y45731D01*
X96210Y45645D01*
X96222Y45583D01*
X96235Y45534D01*
Y45522D01*
Y45497D01*
X96210Y45448D01*
X96185Y45411D01*
X96136Y45362D01*
X96075Y45312D01*
X95976Y45288D01*
X95841Y45276D01*
X94476D01*
X94414Y45288D01*
X94353Y45312D01*
X94279Y45337D01*
X94217Y45386D01*
X94168Y45448D01*
X94156Y45534D01*
Y45546D01*
Y45583D01*
X94181Y45657D01*
X94193Y45669D01*
X94217Y45694D01*
X94254Y45718D01*
X94316Y45755D01*
X94328D01*
X94340Y45768D01*
X94402Y45817D01*
X94500Y45891D01*
X94611Y46001D01*
X94709Y46161D01*
X94808Y46346D01*
X94869Y46567D01*
X94894Y46702D01*
Y46838D01*
Y49962D01*
X95447Y48400D01*
D02*
G37*
G36*
X109102Y38189D02*
X108218D01*
X107087Y44138D01*
X107979D01*
X108634Y40063D01*
Y40054D01*
Y40028D01*
Y39992D01*
X108642Y39930D01*
Y39860D01*
X108651Y39771D01*
Y39665D01*
X108660Y39550D01*
Y39559D01*
Y39586D01*
Y39621D01*
Y39683D01*
Y39754D01*
Y39842D01*
X108669Y39948D01*
X108678Y40063D01*
X109359Y44138D01*
X110242D01*
X109102Y38189D01*
D02*
G37*
G36*
X116492Y44129D02*
X116572Y44112D01*
X116660Y44076D01*
X116749Y44014D01*
X116820Y43935D01*
X116855Y43882D01*
X116873Y43820D01*
X116890Y43740D01*
X116899Y43661D01*
Y38666D01*
Y38658D01*
Y38649D01*
X116890Y38596D01*
X116873Y38516D01*
X116837Y38436D01*
X116775Y38348D01*
X116696Y38269D01*
X116643Y38242D01*
X116581Y38216D01*
X116501Y38207D01*
X116422Y38198D01*
X114442D01*
X114388Y38207D01*
X114309Y38224D01*
X114229Y38260D01*
X114141Y38313D01*
X114061Y38392D01*
X114035Y38445D01*
X114008Y38516D01*
X113999Y38587D01*
X113991Y38666D01*
Y43661D01*
Y43670D01*
Y43679D01*
X113999Y43732D01*
X114017Y43811D01*
X114052Y43900D01*
X114106Y43988D01*
X114194Y44059D01*
X114247Y44094D01*
X114309Y44112D01*
X114388Y44129D01*
X114468Y44138D01*
X116439D01*
X116492Y44129D01*
D02*
G37*
G36*
X113354Y38198D02*
X112497D01*
Y39117D01*
X113354D01*
Y38198D01*
D02*
G37*
G36*
X111816D02*
X110941D01*
Y42397D01*
X110596D01*
Y42512D01*
X111056Y44138D01*
X111816D01*
Y38198D01*
D02*
G37*
G36*
X115883Y56132D02*
Y56071D01*
X115945Y55948D01*
X116006Y55763D01*
X116098Y55517D01*
X116160Y55456D01*
X116252Y55425D01*
X116375Y55364D01*
X116406D01*
X116437Y55333D01*
X116621Y55210D01*
X116836Y55087D01*
X117021Y54933D01*
X117052Y54902D01*
X117113Y54810D01*
X117175Y54626D01*
X117205Y54410D01*
Y54380D01*
X117175Y54257D01*
X117144Y54134D01*
X117052Y53949D01*
X116898Y53795D01*
X116683Y53642D01*
X116375Y53519D01*
X115945Y53488D01*
X109487D01*
X109303Y53519D01*
X109026Y53580D01*
X108780Y53734D01*
X108718Y53795D01*
X108626Y53918D01*
X108534Y54134D01*
X108472Y54410D01*
Y54441D01*
Y54472D01*
X108503Y54595D01*
X108534Y54779D01*
X108595Y54933D01*
X108626Y54964D01*
X108749Y55056D01*
X108934Y55179D01*
X109087Y55271D01*
X109241Y55364D01*
X109272D01*
X109303Y55394D01*
X109426Y55517D01*
X109456Y55548D01*
X109487Y55610D01*
X109518Y55702D01*
Y55794D01*
Y55825D01*
Y55886D01*
X109456Y56102D01*
X109087Y57762D01*
X105490D01*
X105889Y59792D01*
X108688D01*
X106351Y69878D01*
X106720Y71384D01*
X112285D01*
X115883Y56132D01*
D02*
G37*
G36*
X106996Y65265D02*
X104721Y56963D01*
Y56901D01*
X104690Y56778D01*
X104659Y56594D01*
Y56378D01*
Y56348D01*
Y56255D01*
X104690Y56163D01*
X104721Y56009D01*
X104782Y55856D01*
X104905Y55702D01*
X105028Y55579D01*
X105213Y55456D01*
X105674Y55241D01*
X105705D01*
X105766Y55179D01*
X105982Y55025D01*
X106166Y54749D01*
X106228Y54595D01*
X106258Y54380D01*
Y54349D01*
X106228Y54257D01*
X106197Y54103D01*
X106105Y53949D01*
X105982Y53765D01*
X105766Y53642D01*
X105459Y53519D01*
X105059Y53488D01*
X101615D01*
X101492Y53519D01*
X101185Y53580D01*
X100877Y53734D01*
X100816Y53795D01*
X100723Y53949D01*
X100600Y54164D01*
X100570Y54318D01*
X100539Y54503D01*
Y54533D01*
Y54595D01*
X100570Y54687D01*
X100631Y54779D01*
X100723Y54933D01*
X100846Y55056D01*
X101000Y55210D01*
X101246Y55333D01*
X101277D01*
X101308Y55364D01*
X101492Y55456D01*
X101738Y55548D01*
X101923Y55671D01*
X101953Y55702D01*
X102076Y55794D01*
X102199Y55917D01*
X102353Y56102D01*
X102384Y56132D01*
X102415Y56194D01*
X102476Y56317D01*
X102568Y56471D01*
X102661Y56655D01*
X102753Y56901D01*
X102845Y57147D01*
X102937Y57455D01*
X106074Y68156D01*
X106996Y65265D01*
D02*
G37*
G36*
X98755Y71323D02*
X98971Y71261D01*
X99186Y71169D01*
X99401Y70985D01*
X99524Y70769D01*
X99586Y70462D01*
Y70431D01*
Y70339D01*
X99555Y70216D01*
X99493Y70093D01*
X99401Y69908D01*
X99278Y69755D01*
X99124Y69632D01*
X98878Y69509D01*
X98848D01*
X98817Y69478D01*
X98663Y69447D01*
X98540Y69386D01*
X98479D01*
X98448Y69355D01*
X98417D01*
X98386Y69293D01*
Y69263D01*
X98356Y69201D01*
X98325Y69047D01*
X98294Y68801D01*
Y56071D01*
Y56009D01*
Y55856D01*
X98325Y55702D01*
X98386Y55548D01*
X98417Y55517D01*
X98448Y55456D01*
X98509D01*
X98632Y55394D01*
X98755Y55364D01*
X98878Y55333D01*
X98909D01*
X99001Y55271D01*
X99094Y55210D01*
X99247Y55118D01*
X99370Y54995D01*
X99463Y54841D01*
X99555Y54656D01*
X99586Y54410D01*
Y54380D01*
X99555Y54257D01*
X99524Y54134D01*
X99432Y53949D01*
X99278Y53795D01*
X99063Y53642D01*
X98755Y53519D01*
X98356Y53488D01*
X91683D01*
X91529Y53519D01*
X91222Y53580D01*
X90883Y53703D01*
X90822Y53765D01*
X90699Y53888D01*
X90576Y54134D01*
X90545Y54257D01*
X90514Y54441D01*
Y54472D01*
Y54564D01*
X90545Y54687D01*
X90607Y54841D01*
X90699Y54995D01*
X90853Y55148D01*
X91037Y55271D01*
X91283Y55364D01*
X91314D01*
X91375Y55394D01*
X91560Y55425D01*
X91744Y55456D01*
X91806Y55487D01*
X91837D01*
X91867Y55517D01*
X91898Y55579D01*
X91960Y55640D01*
X91990Y55671D01*
X92021Y55763D01*
X92052Y55917D01*
X92083Y56163D01*
Y71384D01*
X98540D01*
X98755Y71323D01*
D02*
G37*
G36*
X90176Y64250D02*
X91591Y68125D01*
Y63574D01*
X88577Y53488D01*
X87501D01*
X82489Y68309D01*
Y68340D01*
X82458Y68432D01*
X82396Y68525D01*
X82335Y68678D01*
X82181Y68955D01*
X82120Y69078D01*
X82027Y69170D01*
X81997Y69201D01*
X81935Y69232D01*
X81781Y69324D01*
X81535Y69386D01*
X81505D01*
X81382Y69447D01*
X81228Y69509D01*
X81043Y69601D01*
X80859Y69724D01*
X80705Y69908D01*
X80582Y70154D01*
X80551Y70431D01*
Y70462D01*
Y70493D01*
X80582Y70677D01*
X80674Y70892D01*
X80859Y71108D01*
X80890D01*
X80920Y71138D01*
X81105Y71261D01*
X81351Y71354D01*
X81720Y71384D01*
X87901D01*
X90176Y64250D01*
D02*
G37*
G36*
X84395Y61452D02*
Y57608D01*
Y57578D01*
Y57516D01*
Y57424D01*
Y57301D01*
Y57024D01*
X84426Y56870D01*
Y56778D01*
Y56747D01*
X84457Y56655D01*
X84487Y56532D01*
X84549Y56378D01*
Y56348D01*
X84610Y56286D01*
X84672Y56194D01*
X84733Y56071D01*
X84949Y55794D01*
X85072Y55671D01*
X85195Y55579D01*
X85687Y55271D01*
X85717Y55241D01*
X85779Y55210D01*
X86025Y55025D01*
X86240Y54749D01*
X86302Y54595D01*
X86332Y54410D01*
Y54380D01*
X86302Y54257D01*
X86271Y54134D01*
X86179Y53949D01*
X86025Y53795D01*
X85810Y53642D01*
X85502Y53519D01*
X85072Y53488D01*
X81689D01*
X81505Y53549D01*
X81289Y53611D01*
X81043Y53703D01*
X80859Y53857D01*
X80736Y54072D01*
X80674Y54380D01*
Y54441D01*
X80705Y54533D01*
X80736Y54687D01*
X80797Y54810D01*
X80828Y54841D01*
X80890Y54933D01*
X81013Y55025D01*
X81197Y55148D01*
X81259Y55179D01*
X81412Y55302D01*
X81597Y55456D01*
X81843Y55733D01*
X82089Y56071D01*
X82273Y56471D01*
X82427Y56993D01*
X82489Y57608D01*
Y65542D01*
X84395Y61452D01*
D02*
G37*
G36*
X59672Y71323D02*
X59887Y71261D01*
X60103Y71169D01*
X60318Y70985D01*
X60441Y70769D01*
X60502Y70462D01*
Y70431D01*
Y70339D01*
X60472Y70216D01*
X60410Y70093D01*
X60318Y69908D01*
X60195Y69755D01*
X60041Y69632D01*
X59795Y69509D01*
X59764D01*
X59734Y69478D01*
X59580Y69447D01*
X59457Y69386D01*
X59395D01*
X59365Y69355D01*
X59334D01*
X59303Y69293D01*
Y69263D01*
X59272Y69201D01*
X59242Y69047D01*
X59211Y68801D01*
Y56102D01*
Y56071D01*
Y56009D01*
X59242Y55825D01*
X59303Y55610D01*
X59365Y55548D01*
X59426Y55487D01*
X59857Y55333D01*
X59887D01*
X59949Y55302D01*
X60072Y55241D01*
X60195Y55148D01*
X60287Y55025D01*
X60410Y54841D01*
X60472Y54656D01*
X60502Y54410D01*
Y54380D01*
X60472Y54257D01*
X60441Y54134D01*
X60349Y53949D01*
X60195Y53795D01*
X59980Y53642D01*
X59672Y53519D01*
X59272Y53488D01*
X52846D01*
X52723Y53519D01*
X52538Y53549D01*
X52323Y53611D01*
X52108Y53703D01*
X51923Y53888D01*
X51800Y54103D01*
X51739Y54410D01*
Y54441D01*
Y54533D01*
X51769Y54656D01*
X51831Y54810D01*
X51892Y54964D01*
X52015Y55118D01*
X52169Y55241D01*
X52384Y55364D01*
X52846Y55517D01*
X52876D01*
X52938Y55610D01*
Y55671D01*
X52969Y55763D01*
X52999Y55917D01*
Y56102D01*
Y61729D01*
X50939D01*
Y63512D01*
X52999D01*
Y68801D01*
Y68832D01*
Y68894D01*
Y69078D01*
X52969Y69263D01*
X52938Y69324D01*
X52907Y69355D01*
X52384Y69509D01*
X52354D01*
X52292Y69570D01*
X52169Y69632D01*
X52077Y69724D01*
X51954Y69847D01*
X51831Y70001D01*
X51769Y70216D01*
X51739Y70462D01*
Y70493D01*
X51769Y70616D01*
X51800Y70769D01*
X51892Y70923D01*
X52015Y71108D01*
X52231Y71231D01*
X52507Y71354D01*
X52907Y71384D01*
X59457D01*
X59672Y71323D01*
D02*
G37*
G36*
X50847D02*
X51093Y71261D01*
X51308Y71169D01*
X51493Y70985D01*
X51616Y70769D01*
X51677Y70462D01*
Y70431D01*
Y70339D01*
X51646Y70216D01*
X51585Y70062D01*
X51493Y69908D01*
X51370Y69755D01*
X51216Y69601D01*
X50970Y69509D01*
X50632Y69416D01*
X50601Y69386D01*
X50539Y69293D01*
X50478Y69232D01*
X50447Y69109D01*
X50416Y68986D01*
Y68801D01*
Y56071D01*
Y56040D01*
Y55979D01*
X50447Y55794D01*
X50509Y55579D01*
X50570Y55487D01*
X50632Y55425D01*
X50970Y55333D01*
X51001D01*
X51093Y55302D01*
X51185Y55241D01*
X51339Y55148D01*
X51462Y55025D01*
X51554Y54841D01*
X51646Y54656D01*
X51677Y54410D01*
Y54380D01*
X51646Y54257D01*
X51616Y54134D01*
X51523Y53949D01*
X51400Y53795D01*
X51185Y53642D01*
X50878Y53519D01*
X50478Y53488D01*
X43928D01*
X43805Y53519D01*
X43528Y53580D01*
X43252Y53703D01*
X43190Y53765D01*
X43098Y53888D01*
X42975Y54103D01*
X42944Y54257D01*
X42913Y54410D01*
Y54441D01*
Y54533D01*
X42944Y54626D01*
X43006Y54779D01*
X43067Y54933D01*
X43190Y55087D01*
X43375Y55210D01*
X43590Y55333D01*
X43621D01*
X43651Y55364D01*
X43805Y55394D01*
X43928Y55425D01*
X43990Y55456D01*
X44020D01*
X44051Y55487D01*
X44082Y55548D01*
X44113Y55579D01*
X44143Y55671D01*
X44174Y55825D01*
X44205Y56071D01*
Y68801D01*
Y68832D01*
Y68863D01*
Y68986D01*
X44143Y69140D01*
X44082Y69293D01*
X44051Y69324D01*
X44020Y69355D01*
X43959Y69386D01*
X43836Y69447D01*
X43713Y69478D01*
X43590Y69509D01*
X43559D01*
X43498Y69570D01*
X43375Y69632D01*
X43252Y69724D01*
X43129Y69847D01*
X43006Y70001D01*
X42944Y70216D01*
X42913Y70462D01*
Y70493D01*
Y70523D01*
X42944Y70708D01*
X43036Y70923D01*
X43221Y71138D01*
X43252D01*
X43282Y71169D01*
X43467Y71261D01*
X43744Y71354D01*
X44113Y71384D01*
X50662D01*
X50847Y71323D01*
D02*
G37*
G36*
X78153Y71354D02*
X78184D01*
X78276Y71323D01*
X78491Y71231D01*
X78522D01*
X78583Y71169D01*
X78737Y71046D01*
X78922Y70800D01*
X78952Y70646D01*
X78983Y70493D01*
Y70462D01*
Y70431D01*
X78952Y70247D01*
X78860Y70031D01*
X78676Y69816D01*
X78645Y69785D01*
X78583Y69724D01*
X78399Y69632D01*
X78245Y69539D01*
X78091Y69447D01*
X78061D01*
X77999Y69386D01*
X77815Y69232D01*
X77569Y68955D01*
X77323Y68586D01*
Y68555D01*
X77292Y68494D01*
X77230Y68371D01*
X77200Y68217D01*
X77138Y68033D01*
X77077Y67817D01*
X77046Y67295D01*
Y58992D01*
Y58961D01*
Y58900D01*
Y58777D01*
X77015Y58623D01*
Y58439D01*
X76984Y58223D01*
X76892Y57701D01*
X76769Y57086D01*
X76554Y56471D01*
X76246Y55825D01*
X75847Y55210D01*
X75816Y55179D01*
X75754Y55056D01*
X75601Y54872D01*
X75416Y54656D01*
X75139Y54410D01*
X74801Y54134D01*
X74401Y53857D01*
X73940Y53611D01*
X73909D01*
X73817Y53549D01*
X73663Y53519D01*
X73448Y53426D01*
X73171Y53365D01*
X72864Y53273D01*
X72464Y53211D01*
X72034Y53150D01*
Y55271D01*
X72095D01*
X72280Y55302D01*
X72526Y55364D01*
X72833Y55425D01*
X73171Y55487D01*
X73540Y55579D01*
X73848Y55702D01*
X74155Y55825D01*
Y55856D01*
X74186Y55886D01*
X74309Y56071D01*
X74463Y56348D01*
X74647Y56747D01*
X74832Y57209D01*
X74986Y57731D01*
X75109Y58346D01*
X75139Y58992D01*
Y67295D01*
Y67325D01*
Y67356D01*
X75109Y67541D01*
X75078Y67817D01*
X74986Y68156D01*
X74863Y68525D01*
X74647Y68894D01*
X74340Y69201D01*
X73940Y69478D01*
X73909D01*
X73879Y69509D01*
X73694Y69632D01*
X73479Y69755D01*
X73325Y69908D01*
X73294Y69939D01*
X73264Y70062D01*
X73202Y70247D01*
X73171Y70523D01*
Y70554D01*
Y70585D01*
X73202Y70769D01*
X73294Y70985D01*
X73479Y71169D01*
X73510D01*
X73540Y71200D01*
X73633Y71231D01*
X73725Y71292D01*
X74032Y71354D01*
X74463Y71384D01*
X77999D01*
X78153Y71354D01*
D02*
G37*
G36*
X70588Y71323D02*
X70650Y71292D01*
X70773Y71261D01*
X70927Y71138D01*
X71080Y70985D01*
X71111Y70954D01*
X71203Y70831D01*
X71265Y70677D01*
X71296Y70462D01*
Y70431D01*
Y70339D01*
X71265Y70216D01*
X71203Y70093D01*
X71111Y69908D01*
X70988Y69755D01*
X70834Y69632D01*
X70588Y69509D01*
X70558D01*
X70527Y69478D01*
X70373Y69447D01*
X70250Y69386D01*
X70189D01*
X70158Y69355D01*
X70127D01*
X70096Y69293D01*
Y69263D01*
X70066Y69201D01*
X70035Y69047D01*
X70004Y68801D01*
Y58131D01*
Y58100D01*
Y57947D01*
Y57762D01*
Y57547D01*
Y57055D01*
X70035Y56840D01*
Y56655D01*
Y56624D01*
Y56594D01*
X70096Y56409D01*
X70158Y56194D01*
X70250Y55948D01*
X70281Y55917D01*
X70342Y55794D01*
X70435Y55671D01*
X70558Y55548D01*
X70588Y55517D01*
X70650D01*
X70711Y55487D01*
X70834Y55425D01*
X70988Y55394D01*
X71173Y55302D01*
X71419Y55241D01*
Y53150D01*
X70588D01*
X70281Y53180D01*
X69881D01*
X69420Y53211D01*
X68959Y53273D01*
X68497Y53365D01*
X68036Y53457D01*
X67975Y53488D01*
X67821Y53519D01*
X67575Y53611D01*
X67237Y53703D01*
X66898Y53857D01*
X66499Y54041D01*
X66099Y54257D01*
X65699Y54503D01*
X65668Y54533D01*
X65545Y54626D01*
X65361Y54779D01*
X65146Y54964D01*
X64900Y55210D01*
X64654Y55487D01*
X64408Y55763D01*
X64223Y56102D01*
X64192Y56132D01*
X64162Y56286D01*
X64100Y56501D01*
X64008Y56809D01*
X63916Y57178D01*
X63854Y57670D01*
X63823Y58223D01*
X63793Y58838D01*
Y68801D01*
Y68832D01*
Y68863D01*
Y68986D01*
X63731Y69140D01*
X63670Y69293D01*
X63639Y69324D01*
X63608Y69355D01*
X63547Y69386D01*
X63424Y69447D01*
X63301Y69478D01*
X63178Y69509D01*
X63147D01*
X63085Y69570D01*
X62962Y69632D01*
X62839Y69724D01*
X62716Y69847D01*
X62593Y70001D01*
X62532Y70216D01*
X62501Y70462D01*
Y70493D01*
Y70523D01*
X62532Y70708D01*
X62655Y70923D01*
X62716Y71046D01*
X62839Y71138D01*
X62870D01*
X62901Y71169D01*
X63085Y71261D01*
X63331Y71354D01*
X63700Y71384D01*
X70066D01*
X70588Y71323D01*
D02*
G37*
G36*
X44895Y168821D02*
X45102Y168789D01*
X45309Y168734D01*
X45504Y168626D01*
X45689Y168484D01*
X45754Y168419D01*
X45819Y168332D01*
X45895Y168213D01*
X45982Y168061D01*
X46069Y167887D01*
X46156Y167691D01*
X46221Y167452D01*
X46526Y166061D01*
Y166039D01*
X46547Y165974D01*
X46580Y165876D01*
X46602Y165767D01*
X46689Y165528D01*
X46743Y165430D01*
X46786Y165365D01*
X46819Y165333D01*
X46874Y165300D01*
X46928Y165267D01*
X47004Y165235D01*
X47091Y165213D01*
X47199Y165191D01*
X47319Y165202D01*
X47341D01*
X47384Y165224D01*
X47460Y165235D01*
X47558Y165267D01*
X47678Y165322D01*
X47808Y165409D01*
X47949Y165506D01*
X48080Y165637D01*
X48591Y165126D01*
X48580Y165115D01*
X48558Y165094D01*
X48526Y165061D01*
X48471Y165028D01*
X48341Y164920D01*
X48178Y164800D01*
X47982Y164670D01*
X47765Y164539D01*
X47526Y164452D01*
X47286Y164387D01*
X47254Y164376D01*
X47058D01*
X46895Y164387D01*
X46721Y164430D01*
X46537Y164485D01*
X46341Y164594D01*
X46167Y164746D01*
X46113Y164800D01*
X46069Y164865D01*
X46015Y164941D01*
X45884Y165137D01*
X45841Y165267D01*
X45798Y165398D01*
X45352Y167148D01*
Y167169D01*
X45330Y167235D01*
X45298Y167311D01*
X45254Y167419D01*
X45156Y167648D01*
X45091Y167756D01*
X45026Y167843D01*
X45004Y167865D01*
X44939Y167908D01*
X44830Y167974D01*
X44700Y168017D01*
X44548Y168039D01*
X44363Y168028D01*
X44265Y167995D01*
X44167Y167941D01*
X44059Y167876D01*
X43961Y167778D01*
X43950Y167767D01*
X43907Y167724D01*
X43863Y167680D01*
X43798Y167615D01*
X43298Y168115D01*
X43309Y168126D01*
X43320Y168137D01*
X43385Y168202D01*
X43494Y168289D01*
X43635Y168408D01*
X43809Y168517D01*
X44015Y168637D01*
X44232Y168745D01*
X44472Y168810D01*
X44504Y168821D01*
X44591D01*
X44732Y168832D01*
X44895Y168821D01*
D02*
G37*
G36*
X41427Y160737D02*
X39449Y158759D01*
X41427Y156781D01*
X40753Y156107D01*
X38775Y158085D01*
X36797Y156107D01*
X36123Y156781D01*
X38101Y158759D01*
X36123Y160737D01*
X36797Y161411D01*
X38775Y159433D01*
X40753Y161411D01*
X41427Y160737D01*
D02*
G37*
G36*
X32129Y48186D02*
X32151Y48164D01*
X32183Y48132D01*
X32216Y48077D01*
X32324Y47947D01*
X32444Y47784D01*
X32574Y47588D01*
X32705Y47371D01*
X32792Y47132D01*
X32857Y46893D01*
X32868Y46860D01*
Y46773D01*
Y46665D01*
X32857Y46501D01*
X32814Y46328D01*
X32759Y46143D01*
X32651Y45947D01*
X32498Y45773D01*
X32444Y45719D01*
X32379Y45676D01*
X32303Y45621D01*
X32107Y45491D01*
X31977Y45447D01*
X31846Y45404D01*
X30097Y44958D01*
X30075D01*
X30010Y44936D01*
X29934Y44904D01*
X29825Y44860D01*
X29597Y44763D01*
X29488Y44697D01*
X29401Y44632D01*
X29379Y44610D01*
X29336Y44545D01*
X29270Y44436D01*
X29227Y44306D01*
X29205Y44154D01*
X29216Y43969D01*
X29249Y43871D01*
X29303Y43774D01*
X29368Y43665D01*
X29466Y43567D01*
X29477Y43556D01*
X29520Y43513D01*
X29564Y43469D01*
X29629Y43404D01*
X29129Y42904D01*
X29118Y42915D01*
X29107Y42926D01*
X29042Y42991D01*
X28955Y43100D01*
X28836Y43241D01*
X28727Y43415D01*
X28608Y43621D01*
X28499Y43839D01*
X28434Y44078D01*
X28423Y44111D01*
Y44197D01*
X28412Y44339D01*
X28423Y44502D01*
X28455Y44708D01*
X28510Y44915D01*
X28618Y45110D01*
X28760Y45295D01*
X28825Y45360D01*
X28912Y45426D01*
X29031Y45502D01*
X29184Y45589D01*
X29357Y45676D01*
X29553Y45763D01*
X29792Y45828D01*
X31183Y46132D01*
X31205D01*
X31270Y46154D01*
X31368Y46186D01*
X31477Y46208D01*
X31716Y46295D01*
X31814Y46349D01*
X31879Y46393D01*
X31912Y46425D01*
X31944Y46480D01*
X31977Y46534D01*
X32009Y46610D01*
X32031Y46697D01*
X32053Y46806D01*
X32042Y46925D01*
Y46947D01*
X32020Y46991D01*
X32009Y47067D01*
X31977Y47164D01*
X31922Y47284D01*
X31835Y47414D01*
X31738Y47556D01*
X31607Y47686D01*
X32118Y48197D01*
X32129Y48186D01*
D02*
G37*
G36*
X38485Y39055D02*
X40463Y41033D01*
X41137Y40359D01*
X39159Y38381D01*
X41137Y36403D01*
X40463Y35730D01*
X38485Y37707D01*
X36507Y35730D01*
X35833Y36403D01*
X37811Y38381D01*
X35833Y40359D01*
X36507Y41033D01*
X38485Y39055D01*
D02*
G37*
G36*
X150471Y33262D02*
X150580D01*
X150743Y33251D01*
X150917Y33207D01*
X151101Y33153D01*
X151297Y33044D01*
X151471Y32892D01*
X151525Y32838D01*
X151569Y32772D01*
X151623Y32697D01*
X151753Y32501D01*
X151797Y32370D01*
X151840Y32240D01*
X152286Y30490D01*
Y30468D01*
X152308Y30403D01*
X152340Y30327D01*
X152384Y30218D01*
X152481Y29990D01*
X152547Y29882D01*
X152612Y29795D01*
X152634Y29773D01*
X152699Y29729D01*
X152807Y29664D01*
X152938Y29621D01*
X153090Y29599D01*
X153275Y29610D01*
X153373Y29643D01*
X153471Y29697D01*
X153579Y29762D01*
X153677Y29860D01*
X153688Y29871D01*
X153731Y29914D01*
X153775Y29958D01*
X153840Y30023D01*
X154340Y29523D01*
X154329Y29512D01*
X154318Y29501D01*
X154253Y29436D01*
X154144Y29349D01*
X154003Y29230D01*
X153829Y29121D01*
X153623Y29001D01*
X153405Y28893D01*
X153166Y28827D01*
X153134Y28817D01*
X153047D01*
X152905Y28806D01*
X152742Y28817D01*
X152536Y28849D01*
X152329Y28903D01*
X152134Y29012D01*
X151949Y29153D01*
X151884Y29219D01*
X151819Y29306D01*
X151742Y29425D01*
X151655Y29577D01*
X151569Y29751D01*
X151482Y29947D01*
X151416Y30186D01*
X151112Y31577D01*
Y31599D01*
X151090Y31664D01*
X151058Y31762D01*
X151036Y31870D01*
X150949Y32110D01*
X150895Y32207D01*
X150851Y32273D01*
X150819Y32305D01*
X150764Y32338D01*
X150710Y32370D01*
X150634Y32403D01*
X150547Y32425D01*
X150438Y32447D01*
X150319Y32436D01*
X150297D01*
X150253Y32414D01*
X150177Y32403D01*
X150080Y32370D01*
X149960Y32316D01*
X149830Y32229D01*
X149688Y32131D01*
X149558Y32001D01*
X149047Y32512D01*
X149058Y32523D01*
X149080Y32544D01*
X149112Y32577D01*
X149167Y32610D01*
X149297Y32718D01*
X149460Y32838D01*
X149656Y32968D01*
X149873Y33099D01*
X150112Y33185D01*
X150351Y33251D01*
X150384Y33262D01*
X150471D01*
D02*
G37*
G36*
X158863Y39552D02*
X160841Y41530D01*
X161515Y40857D01*
X159537Y38879D01*
X161515Y36900D01*
X160841Y36227D01*
X158863Y38205D01*
X156885Y36227D01*
X156211Y36900D01*
X158189Y38879D01*
X156211Y40857D01*
X156885Y41530D01*
X158863Y39552D01*
D02*
G37*
G36*
X160624Y160053D02*
X158646Y158075D01*
X160624Y156097D01*
X159950Y155423D01*
X157972Y157402D01*
X155994Y155423D01*
X155320Y156097D01*
X157298Y158075D01*
X155320Y160053D01*
X155994Y160727D01*
X157972Y158749D01*
X159950Y160727D01*
X160624Y160053D01*
D02*
G37*
G36*
X167338Y153542D02*
X167349Y153531D01*
X167414Y153466D01*
X167501Y153357D01*
X167621Y153216D01*
X167730Y153042D01*
X167849Y152835D01*
X167958Y152618D01*
X168023Y152379D01*
X168034Y152346D01*
Y152259D01*
X168045Y152118D01*
X168034Y151955D01*
X168001Y151748D01*
X167947Y151542D01*
X167838Y151346D01*
X167697Y151162D01*
X167632Y151096D01*
X167545Y151031D01*
X167425Y150955D01*
X167273Y150868D01*
X167099Y150781D01*
X166904Y150694D01*
X166665Y150629D01*
X165273Y150325D01*
X165252D01*
X165186Y150303D01*
X165089Y150270D01*
X164980Y150249D01*
X164741Y150162D01*
X164643Y150107D01*
X164578Y150064D01*
X164545Y150031D01*
X164513Y149977D01*
X164480Y149923D01*
X164447Y149846D01*
X164426Y149759D01*
X164404Y149651D01*
X164415Y149531D01*
Y149510D01*
X164436Y149466D01*
X164447Y149390D01*
X164480Y149292D01*
X164534Y149173D01*
X164621Y149042D01*
X164719Y148901D01*
X164849Y148770D01*
X164339Y148260D01*
X164328Y148271D01*
X164306Y148292D01*
X164274Y148325D01*
X164241Y148379D01*
X164132Y148510D01*
X164013Y148673D01*
X163882Y148868D01*
X163752Y149086D01*
X163665Y149325D01*
X163600Y149564D01*
X163589Y149597D01*
Y149683D01*
Y149792D01*
X163600Y149955D01*
X163643Y150129D01*
X163698Y150314D01*
X163806Y150509D01*
X163958Y150683D01*
X164013Y150738D01*
X164078Y150781D01*
X164154Y150836D01*
X164350Y150966D01*
X164480Y151009D01*
X164610Y151053D01*
X166360Y151498D01*
X166382D01*
X166447Y151520D01*
X166523Y151553D01*
X166632Y151596D01*
X166860Y151694D01*
X166969Y151759D01*
X167056Y151824D01*
X167078Y151846D01*
X167121Y151911D01*
X167186Y152020D01*
X167230Y152150D01*
X167251Y152303D01*
X167241Y152488D01*
X167208Y152585D01*
X167154Y152683D01*
X167088Y152792D01*
X166990Y152890D01*
X166980Y152901D01*
X166936Y152944D01*
X166893Y152987D01*
X166827Y153053D01*
X167327Y153553D01*
X167338Y153542D01*
D02*
G37*
G36*
X73959Y191167D02*
Y190014D01*
X66199Y188538D01*
Y189702D01*
X71514Y190556D01*
X71526D01*
X71560D01*
X71606D01*
X71687Y190567D01*
X71779D01*
X71895Y190579D01*
X72033D01*
X72183Y190590D01*
X72171D01*
X72137D01*
X72091D01*
X72010D01*
X71918D01*
X71803D01*
X71664Y190602D01*
X71514Y190613D01*
X66199Y191501D01*
Y192654D01*
X73959Y191167D01*
D02*
G37*
G36*
X68551Y187938D02*
X68655Y187915D01*
X68770Y187892D01*
X68908Y187846D01*
X69058Y187777D01*
X69220Y187696D01*
X72932Y185575D01*
Y187938D01*
X73947D01*
Y184191D01*
X73232D01*
X68620Y186808D01*
X67179D01*
Y185402D01*
X68620D01*
Y184272D01*
X66821D01*
X66810D01*
X66799D01*
X66729Y184283D01*
X66625Y184306D01*
X66510Y184352D01*
X66395Y184422D01*
X66303Y184525D01*
X66256Y184595D01*
X66233Y184687D01*
X66210Y184779D01*
X66199Y184883D01*
Y187350D01*
X66210Y187419D01*
X66233Y187523D01*
X66280Y187638D01*
X66360Y187754D01*
X66464Y187846D01*
X66533Y187892D01*
X66614Y187915D01*
X66718Y187938D01*
X66821Y187950D01*
X68413D01*
X68424D01*
X68482D01*
X68551Y187938D01*
D02*
G37*
G36*
X73947Y182208D02*
X68470D01*
Y181758D01*
X68320D01*
X66199Y182358D01*
Y183349D01*
X73947D01*
Y182208D01*
D02*
G37*
G36*
X71491Y178737D02*
X70454D01*
Y181101D01*
X71491D01*
Y178737D01*
D02*
G37*
G36*
X73947Y176328D02*
Y175140D01*
X67190Y176869D01*
Y175394D01*
X68332D01*
Y174275D01*
X66199D01*
Y178103D01*
X66948D01*
X73947Y176328D01*
D02*
G37*
G36*
X126202Y28348D02*
X125519D01*
Y29200D01*
X121042D01*
Y29968D01*
X125519D01*
Y30821D01*
X126202D01*
Y28348D01*
D02*
G37*
G36*
Y25852D02*
X125519D01*
Y27196D01*
X124014D01*
Y26036D01*
X123346D01*
Y27196D01*
X121725D01*
Y25829D01*
X121042D01*
Y27964D01*
X126202D01*
Y25852D01*
D02*
G37*
G36*
Y24531D02*
X121733D01*
Y23271D01*
X121042D01*
Y25299D01*
X126202D01*
Y24531D01*
D02*
G37*
G36*
Y20698D02*
X125519D01*
Y22042D01*
X124014D01*
Y20883D01*
X123346D01*
Y22042D01*
X121725D01*
Y20675D01*
X121042D01*
Y22810D01*
X126202D01*
Y20698D01*
D02*
G37*
G36*
Y19423D02*
X123346Y18609D01*
X123338D01*
X123322Y18602D01*
X123300D01*
X123269Y18594D01*
X123230D01*
X123177Y18586D01*
X123246Y18579D01*
X123346Y18563D01*
X126202Y17749D01*
Y17020D01*
X121042D01*
Y17765D01*
X123584D01*
X123591D01*
X123622D01*
X123668D01*
X123730Y17757D01*
X123806D01*
X123906Y17742D01*
X124014Y17734D01*
X124144Y17718D01*
X121518Y18387D01*
Y18778D01*
X124144Y19454D01*
X124137D01*
X124129D01*
X124083Y19446D01*
X124021Y19439D01*
X123937Y19423D01*
X123853Y19416D01*
X123753Y19408D01*
X123668Y19400D01*
X123584D01*
X121042D01*
Y20145D01*
X126202D01*
Y19423D01*
D02*
G37*
G36*
Y14301D02*
X125519D01*
Y15645D01*
X124014D01*
Y14485D01*
X123346D01*
Y15645D01*
X121725D01*
Y14278D01*
X121042D01*
Y16413D01*
X126202D01*
Y14301D01*
D02*
G37*
G36*
Y11498D02*
X125519D01*
Y12350D01*
X121042D01*
Y13118D01*
X125519D01*
Y13971D01*
X126202D01*
Y11498D01*
D02*
G37*
G36*
Y9002D02*
X126195Y8956D01*
X126180Y8886D01*
X126149Y8810D01*
X126095Y8733D01*
X126026Y8664D01*
X125980Y8641D01*
X125926Y8618D01*
X125857Y8610D01*
X125788Y8602D01*
X123791D01*
X123776D01*
X123745D01*
X123699Y8610D01*
X123637Y8633D01*
X123576Y8656D01*
X123514Y8694D01*
X123461Y8748D01*
X123422Y8825D01*
Y8833D01*
X123415Y8848D01*
X123407Y8886D01*
Y8933D01*
X123399Y9002D01*
X123392Y9094D01*
X123384Y9201D01*
Y9332D01*
X121042Y8472D01*
Y9278D01*
X123438Y10131D01*
X123445D01*
X123461D01*
X123499D01*
X123553D01*
X123591D01*
X123637D01*
X123691D01*
X123753D01*
X123822D01*
X123906D01*
Y9370D01*
X125542D01*
Y10346D01*
X121042D01*
Y11114D01*
X126202D01*
Y9002D01*
D02*
G37*
G36*
Y7427D02*
X123952Y6805D01*
X126202Y6191D01*
Y5400D01*
X126195D01*
X126187D01*
X126180D01*
X126172D01*
X124014Y6083D01*
X123998Y6091D01*
X123983Y6099D01*
X123952Y6106D01*
X123914Y6122D01*
X123875Y6137D01*
X123822Y6152D01*
X123760Y6176D01*
X123684Y6199D01*
X123607Y6222D01*
X123522Y6252D01*
X123422Y6283D01*
X123315Y6314D01*
X123200Y6345D01*
X123069Y6383D01*
X122931Y6421D01*
X121042D01*
Y7197D01*
X122931D01*
X122946D01*
X122977Y7205D01*
X123031Y7220D01*
X123100Y7235D01*
X123177Y7258D01*
X123269Y7281D01*
X123369Y7312D01*
X123476Y7350D01*
X123484D01*
X123499Y7358D01*
X123522Y7366D01*
X123553Y7381D01*
X123637Y7404D01*
X123730Y7443D01*
X123822Y7473D01*
X123914Y7504D01*
X123945Y7519D01*
X123975Y7527D01*
X123998Y7535D01*
X124014Y7542D01*
X126172Y8218D01*
X126180D01*
X126187D01*
X126202D01*
Y7427D01*
D02*
G37*
G36*
X171604Y131566D02*
X171690Y131547D01*
X171786Y131508D01*
X171882Y131450D01*
X171969Y131354D01*
X171998Y131297D01*
X172027Y131229D01*
X172036Y131153D01*
X172046Y131066D01*
Y129548D01*
X171085D01*
Y130759D01*
X169903D01*
Y129586D01*
X171834Y127760D01*
X171844Y127751D01*
X171863Y127722D01*
X171902Y127683D01*
X171940Y127616D01*
X171979Y127539D01*
X172017Y127453D01*
X172036Y127347D01*
X172046Y127232D01*
Y125627D01*
Y125617D01*
Y125608D01*
X172036Y125550D01*
X172017Y125463D01*
X171979Y125377D01*
X171921Y125281D01*
X171825Y125194D01*
X171767Y125166D01*
X171700Y125137D01*
X171623Y125127D01*
X171527Y125118D01*
X169432D01*
X169374Y125127D01*
X169288Y125146D01*
X169201Y125185D01*
X169105Y125242D01*
X169019Y125329D01*
X168990Y125387D01*
X168961Y125463D01*
X168951Y125540D01*
X168942Y125627D01*
Y127241D01*
X169903D01*
Y125934D01*
X171085D01*
Y127193D01*
X169144Y129019D01*
X169134Y129029D01*
X169115Y129058D01*
X169076Y129096D01*
X169048Y129163D01*
X169009Y129231D01*
X168971Y129327D01*
X168951Y129423D01*
X168942Y129538D01*
Y131056D01*
Y131066D01*
Y131076D01*
X168951Y131133D01*
X168971Y131220D01*
X169009Y131316D01*
X169067Y131412D01*
X169153Y131489D01*
X169211Y131527D01*
X169288Y131547D01*
X169365Y131566D01*
X169451Y131575D01*
X171546D01*
X171604Y131566D01*
D02*
G37*
G36*
X190737Y131527D02*
X189421Y128462D01*
X190901Y125118D01*
X189834D01*
X188613Y128000D01*
Y125118D01*
X187653D01*
Y131575D01*
X188613D01*
Y128837D01*
X189680Y131575D01*
X190737D01*
Y131527D01*
D02*
G37*
G36*
X186884Y125118D02*
X186028D01*
X184481Y129173D01*
Y129163D01*
X184491Y129125D01*
X184500Y129077D01*
X184520Y129009D01*
X184539Y128856D01*
X184548Y128779D01*
Y128712D01*
Y125118D01*
X183607D01*
Y131575D01*
X184452D01*
X186000Y127587D01*
Y127597D01*
X185990Y127635D01*
X185980Y127693D01*
X185971Y127760D01*
X185951Y127914D01*
X185942Y127991D01*
Y128058D01*
Y131575D01*
X186884D01*
Y125118D01*
D02*
G37*
G36*
X178014Y127164D02*
X176044D01*
Y128029D01*
X178014D01*
Y127164D01*
D02*
G37*
G36*
X182809Y125118D02*
X181848D01*
Y131575D01*
X182809D01*
Y125118D01*
D02*
G37*
G36*
X179676Y125982D02*
X181252D01*
Y125118D01*
X178715D01*
Y131575D01*
X179676D01*
Y125982D01*
D02*
G37*
G36*
X175630Y130720D02*
X174564D01*
Y125118D01*
X173603D01*
Y130720D01*
X172536D01*
Y131575D01*
X175630D01*
Y130720D01*
D02*
G37*
G36*
X13428Y136430D02*
X13508Y136413D01*
X13596Y136377D01*
X13684Y136316D01*
X13755Y136236D01*
X13791Y136183D01*
X13808Y136121D01*
X13826Y136041D01*
X13835Y135962D01*
Y134503D01*
X12951D01*
Y135679D01*
X11802D01*
Y131259D01*
X12951D01*
Y132505D01*
X13835D01*
Y130967D01*
Y130958D01*
Y130950D01*
X13826Y130897D01*
X13808Y130817D01*
X13773Y130737D01*
X13711Y130649D01*
X13632Y130570D01*
X13578Y130543D01*
X13517Y130516D01*
X13437Y130508D01*
X13358Y130499D01*
X11368D01*
X11315Y130508D01*
X11236Y130525D01*
X11156Y130561D01*
X11068Y130614D01*
X10988Y130693D01*
X10962Y130746D01*
X10935Y130817D01*
X10926Y130888D01*
X10918Y130967D01*
Y135962D01*
Y135971D01*
Y135979D01*
X10926Y136033D01*
X10944Y136112D01*
X10979Y136200D01*
X11033Y136289D01*
X11112Y136360D01*
X11165Y136395D01*
X11236Y136413D01*
X11307Y136430D01*
X11386Y136439D01*
X13375D01*
X13428Y136430D01*
D02*
G37*
G36*
X21057Y130490D02*
X20173D01*
X19042Y136439D01*
X19934D01*
X20589Y132364D01*
Y132355D01*
Y132329D01*
Y132293D01*
X20597Y132231D01*
Y132161D01*
X20606Y132072D01*
Y131966D01*
X20615Y131851D01*
Y131860D01*
Y131887D01*
Y131922D01*
Y131984D01*
Y132055D01*
Y132143D01*
X20624Y132249D01*
X20633Y132364D01*
X21314Y136439D01*
X22197D01*
X21057Y130490D01*
D02*
G37*
G36*
X28244Y136430D02*
X28324Y136413D01*
X28412Y136377D01*
X28500Y136316D01*
X28580Y136236D01*
X28607Y136183D01*
X28633Y136121D01*
X28642Y136041D01*
X28651Y135962D01*
Y133663D01*
Y133646D01*
Y133610D01*
X28642Y133557D01*
X28615Y133487D01*
X28589Y133416D01*
X28545Y133345D01*
X28483Y133283D01*
X28394Y133239D01*
X28385D01*
X28368Y133230D01*
X28324Y133221D01*
X28271D01*
X28191Y133213D01*
X28085Y133204D01*
X27961Y133195D01*
X27811D01*
X28801Y130499D01*
X27873D01*
X26891Y133257D01*
Y133266D01*
Y133283D01*
Y133327D01*
Y133389D01*
Y133434D01*
Y133487D01*
Y133549D01*
Y133619D01*
Y133699D01*
Y133796D01*
X27767D01*
Y135679D01*
X26644D01*
Y130499D01*
X25760D01*
Y136439D01*
X28191D01*
X28244Y136430D01*
D02*
G37*
G36*
X25124Y135652D02*
X23576D01*
Y133920D01*
X24911D01*
Y133151D01*
X23576D01*
Y131286D01*
X25150D01*
Y130499D01*
X22693D01*
Y136439D01*
X25124D01*
Y135652D01*
D02*
G37*
G36*
X18502Y130499D02*
X17618D01*
Y136439D01*
X18502D01*
Y130499D01*
D02*
G37*
G36*
X16964Y135652D02*
X15417D01*
Y133920D01*
X16752D01*
Y133151D01*
X15417D01*
Y131286D01*
X16991D01*
Y130499D01*
X14533D01*
Y136439D01*
X16964D01*
Y135652D01*
D02*
G37*
G36*
X10281D02*
X8734D01*
Y133920D01*
X10069D01*
Y133151D01*
X8734D01*
Y131286D01*
X10308D01*
Y130499D01*
X7850D01*
Y136439D01*
X10281D01*
Y135652D01*
D02*
G37*
G36*
X6754Y136430D02*
X6833Y136413D01*
X6922Y136377D01*
X7010Y136316D01*
X7090Y136236D01*
X7116Y136183D01*
X7143Y136121D01*
X7152Y136041D01*
X7161Y135962D01*
Y133663D01*
Y133646D01*
Y133610D01*
X7152Y133557D01*
X7125Y133487D01*
X7099Y133416D01*
X7055Y133345D01*
X6993Y133283D01*
X6904Y133239D01*
X6895D01*
X6878Y133230D01*
X6833Y133221D01*
X6780D01*
X6701Y133213D01*
X6595Y133204D01*
X6471Y133195D01*
X6321D01*
X7311Y130499D01*
X6383D01*
X5401Y133257D01*
Y133266D01*
Y133283D01*
Y133327D01*
Y133389D01*
Y133434D01*
Y133487D01*
Y133549D01*
Y133619D01*
Y133699D01*
Y133796D01*
X6277D01*
Y135679D01*
X5154D01*
Y130499D01*
X4270D01*
Y136439D01*
X6701D01*
X6754Y136430D01*
D02*
G37*
%LPC*%
G36*
X116033Y43378D02*
X114866D01*
Y38958D01*
X116033D01*
Y43378D01*
D02*
G37*
%LPD*%
D10*
X153850Y68743D02*
X153043Y68172D01*
X152316Y67501D01*
X151682Y66743D01*
X151150Y65909D01*
X150729Y65014D01*
X150427Y64073D01*
X150249Y63100D01*
X150197Y62112D01*
X150273Y61126D01*
X150475Y60158D01*
X150799Y59224D01*
X151241Y58340D01*
X151793Y57519D01*
X152445Y56776D01*
X163555Y57041D02*
X164199Y57853D01*
X164727Y58745D01*
X165131Y59700D01*
X165402Y60701D01*
X165536Y61729D01*
X165531Y62765D01*
X165385Y63792D01*
X165103Y64789D01*
X164689Y65740D01*
X164150Y66626D01*
X163497Y67431D01*
X162742Y68141D01*
X161898Y68743D01*
X144643Y139677D02*
X145214Y138870D01*
X145885Y138143D01*
X146643Y137508D01*
X147476Y136977D01*
X148372Y136556D01*
X149313Y136254D01*
X150286Y136076D01*
X151273Y136024D01*
X152259Y136100D01*
X153227Y136301D01*
X154162Y136626D01*
X155046Y137068D01*
X155867Y137619D01*
X156610Y138272D01*
X156345Y149381D02*
X155533Y150025D01*
X154641Y150554D01*
X153686Y150958D01*
X152685Y151229D01*
X151657Y151363D01*
X150620Y151357D01*
X149594Y151212D01*
X148596Y150930D01*
X147646Y150516D01*
X146760Y149977D01*
X145955Y149324D01*
X145245Y148569D01*
X144643Y147724D01*
X66876Y159351D02*
X66291Y160152D01*
X65609Y160874D01*
X64842Y161505D01*
X64001Y162034D01*
X63101Y162452D01*
X62155Y162755D01*
X61179Y162935D01*
X60187Y162992D01*
X59197Y162923D01*
X58223Y162730D01*
X57281Y162416D01*
X56386Y161986D01*
X55552Y161447D01*
X54792Y160807D01*
X54120Y160077D01*
X53544Y159268D01*
X53075Y158392D01*
Y151844D02*
X53544Y150969D01*
X54120Y150159D01*
X54792Y149429D01*
X55552Y148789D01*
X56386Y148250D01*
X57281Y147820D01*
X58223Y147506D01*
X59197Y147313D01*
X60187Y147244D01*
X61179Y147301D01*
X62155Y147482D01*
X63101Y147784D01*
X64001Y148203D01*
X64842Y148731D01*
X65609Y149362D01*
X66291Y150084D01*
X66876Y150886D01*
X132283Y44390D02*
X131791Y45242D01*
X130807D01*
X130315Y44390D01*
X130807Y43537D01*
X131791D01*
X132283Y44390D01*
X126121Y166448D02*
X126875Y165724D01*
X127742Y165140D01*
X128696Y164711D01*
X129709Y164453D01*
X130751Y164370D01*
X131792Y164467D01*
X132801Y164740D01*
X133749Y165181D01*
X134608Y165778D01*
X135352Y166512D01*
X135391Y174433D02*
X134647Y175167D01*
X133788Y175764D01*
X132841Y176205D01*
X131831Y176478D01*
X130790Y176575D01*
X129748Y176492D01*
X128735Y176233D01*
X127781Y175805D01*
X126915Y175221D01*
X126160Y174497D01*
X163219Y56705D02*
X163555Y57041D01*
X152445Y56705D02*
X153874D01*
X161874D02*
X163219D01*
X156345Y149381D02*
X156681Y149046D01*
Y138272D02*
Y139701D01*
Y147701D02*
Y149046D01*
X43898Y106299D02*
X64764D01*
X42126Y89370D02*
Y98819D01*
X66535Y89370D02*
Y98819D01*
X43898Y81890D02*
X64764D01*
X116142Y150591D02*
Y207677D01*
X80709D02*
X116142D01*
X107480Y150591D02*
X116142D01*
X80709D02*
X89370D01*
X80709Y175000D02*
Y207677D01*
Y150591D02*
Y156890D01*
X24528Y68543D02*
Y128543D01*
X22861D02*
X24528Y126877D01*
X6194Y71877D02*
X19528D01*
X4528Y73543D02*
X6194Y71877D01*
X4528Y73543D02*
X6194Y75210D01*
X19528D01*
X6194Y81877D02*
X19528D01*
X4528Y83543D02*
X6194Y81877D01*
X4528Y83543D02*
X6194Y85210D01*
X19528D01*
X6194Y91877D02*
X19528D01*
X4528Y93543D02*
X6194Y91877D01*
X4528Y93543D02*
X6194Y95210D01*
X19528D01*
X6194Y101877D02*
X19528D01*
X4528Y103543D02*
X6194Y101877D01*
X4528Y103543D02*
X6194Y105210D01*
X19528D01*
X6194Y111877D02*
X19528D01*
X4528Y113543D02*
X6194Y111877D01*
X4528Y113543D02*
X6194Y115210D01*
X19528D01*
X6194Y121877D02*
X19528D01*
X4528Y123543D02*
X6194Y121877D01*
X4528Y123543D02*
X6194Y125210D01*
X19528D01*
Y68543D02*
X24528D01*
X19528D02*
Y128543D01*
X24528D01*
X79646Y19528D02*
X119646D01*
Y24528D01*
X79646Y19528D02*
Y24528D01*
X82979Y6194D02*
Y19528D01*
Y6194D02*
X84646Y4528D01*
X86312Y6194D01*
Y19528D01*
X92979Y6194D02*
Y19528D01*
Y6194D02*
X94646Y4528D01*
X96312Y6194D01*
Y19528D01*
X102979Y6194D02*
Y19528D01*
Y6194D02*
X104646Y4528D01*
X106312Y6194D01*
Y19528D01*
X112979Y6194D02*
Y19528D01*
Y6194D02*
X114646Y4528D01*
X116312Y6194D01*
Y19528D01*
X79646Y24528D02*
X119646D01*
X172323Y123425D02*
X177323D01*
Y73425D02*
Y123425D01*
X172323Y73425D02*
X177323D01*
Y76759D02*
X190656D01*
X192323Y78425D01*
X190656Y80092D02*
X192323Y78425D01*
X177323Y80092D02*
X190656D01*
X177323Y86759D02*
X190656D01*
X192323Y88425D01*
X190656Y90092D02*
X192323Y88425D01*
X177323Y90092D02*
X190656D01*
X177323Y96759D02*
X190656D01*
X192323Y98425D01*
X190656Y100092D02*
X192323Y98425D01*
X177323Y100092D02*
X190656D01*
X177323Y106758D02*
X190656D01*
X192323Y108425D01*
X190656Y110092D02*
X192323Y108425D01*
X177323Y110092D02*
X190656D01*
X177323Y116759D02*
X190656D01*
X192323Y118425D01*
X190656Y120092D02*
X192323Y118425D01*
X177323Y120092D02*
X190656D01*
X172323Y73425D02*
Y123425D01*
X14606Y161031D02*
X35819Y182245D01*
X14606Y161031D02*
X18141Y157496D01*
X35819Y182245D02*
X39355Y178709D01*
X18141Y157496D02*
X39355Y178709D01*
X24034Y189316D02*
X33462Y179887D01*
X21677Y189316D02*
X24034Y189316D01*
X21677Y186959D02*
Y189316D01*
Y186959D02*
X31105Y177531D01*
X16963Y182245D02*
X26391Y172817D01*
X14606Y182245D02*
X16963Y182245D01*
X14606Y182245D02*
X14606Y179888D01*
X24034Y170459D01*
X9892Y175173D02*
X19320Y165745D01*
X7535Y175173D02*
X9892D01*
X7535D02*
X7535Y172817D01*
X16963Y163389D01*
X161031Y182245D02*
X182245Y161031D01*
X157496Y178709D02*
X161031Y182245D01*
X178709Y157496D02*
X182245Y161031D01*
X157496Y178709D02*
X178709Y157496D01*
X179887Y163389D02*
X189316Y172817D01*
X189316Y175173D01*
X186959Y175173D02*
X189316Y175173D01*
X177531Y165745D02*
X186959Y175173D01*
X172817Y170459D02*
X182245Y179888D01*
X182245Y182245D01*
X179888Y182245D02*
X182245Y182245D01*
X170459Y172817D02*
X179888Y182245D01*
X165745Y177531D02*
X175173Y186959D01*
Y189316D01*
X172817Y189316D02*
X175173Y189316D01*
X163389Y179887D02*
X172817Y189316D01*
X161031Y14606D02*
X182245Y35819D01*
X178709Y39355D02*
X182245Y35819D01*
X157496Y18141D02*
X161031Y14606D01*
X157496Y18141D02*
X178709Y39355D01*
X163389Y16963D02*
X172817Y7535D01*
X175173Y7535D01*
Y9892D01*
X165745Y19320D02*
X175173Y9892D01*
X170459Y24034D02*
X179888Y14606D01*
X182245Y14606D01*
X182245Y16963D02*
X182245Y14606D01*
X172817Y26391D02*
X182245Y16963D01*
X177531Y31105D02*
X186959Y21677D01*
X189316Y21677D01*
X189316Y24034D02*
X189316Y21677D01*
X179887Y33462D02*
X189316Y24034D01*
X14606Y35819D02*
X35819Y14606D01*
X39355Y18141D01*
X14606Y35819D02*
X18141Y39355D01*
X39355Y18141D01*
X7535Y24034D02*
X16963Y33462D01*
X7535Y21677D02*
X7535Y24034D01*
X7535Y21677D02*
X9892D01*
X19320Y31105D01*
X14606Y16963D02*
X24034Y26391D01*
X14606Y14606D02*
X14606Y16963D01*
X14606Y14606D02*
X16963Y14606D01*
X26391Y24034D01*
X21677Y9892D02*
X31105Y19320D01*
X21677Y7535D02*
Y9892D01*
Y7535D02*
X24034Y7535D01*
X33462Y16963D01*
X109252Y87205D02*
X130905D01*
X109252Y108858D02*
X130905D01*
Y87205D02*
Y108858D01*
X109252Y87205D02*
Y108858D01*
D11*
X103839Y140551D02*
X102862Y140487D01*
X101902Y140296D01*
X100976Y139982D01*
X100098Y139549D01*
X99285Y139005D01*
X98549Y138360D01*
X97904Y137625D01*
X97360Y136811D01*
X96928Y135933D01*
X96613Y135007D01*
X96422Y134047D01*
X96358Y133071D01*
X96422Y132095D01*
X96613Y131135D01*
X96928Y130208D01*
X97360Y129331D01*
X97904Y128517D01*
X98549Y127781D01*
X99285Y127136D01*
X100098Y126593D01*
X100976Y126160D01*
X101902Y125846D01*
X102862Y125655D01*
X103839Y125591D01*
X132180Y125591D02*
X133157Y125654D01*
X134116Y125845D01*
X135043Y126160D01*
X135920Y126593D01*
X136734Y127136D01*
X137469Y127781D01*
X138115Y128517D01*
X138658Y129331D01*
X139091Y130208D01*
X139406Y131135D01*
X139596Y132095D01*
X139660Y133071D01*
X139596Y134047D01*
X139406Y135007D01*
X139091Y135933D01*
X138658Y136811D01*
X138115Y137625D01*
X137469Y138360D01*
X136734Y139005D01*
X135920Y139549D01*
X135043Y139982D01*
X134116Y140296D01*
X133157Y140487D01*
X132180Y140551D01*
X72634Y139413D02*
X85634D01*
Y146413D01*
X72634D02*
X85634D01*
X72634Y139413D02*
Y146413D01*
Y91776D02*
Y98776D01*
X85634D01*
Y91776D02*
Y98776D01*
X72634Y91776D02*
X85634D01*
X103839Y140551D02*
X132185D01*
X103839Y125591D02*
X132175D01*
D12*
X114370Y104921D02*
X113925Y105845D01*
X112926Y106073D01*
X112125Y105434D01*
Y104409D01*
X112926Y103770D01*
X113925Y103998D01*
X114370Y104921D01*
D13*
X104626Y111614D02*
X103888Y112040D01*
Y111188D01*
X104626Y111614D01*
D14*
X80708Y84154D02*
Y89075D01*
X79133Y116831D02*
Y121752D01*
X62599Y119587D02*
Y124508D01*
X79133Y101083D02*
Y106004D01*
Y108957D02*
Y113878D01*
Y124705D02*
Y129626D01*
Y132579D02*
Y137500D01*
X62599Y111713D02*
Y116634D01*
D15*
X127264Y63957D02*
X145177D01*
Y46043D02*
Y63957D01*
X127264Y46043D02*
X145177D01*
X127264D02*
Y63957D01*
D16*
X128347Y47126D02*
X130709D01*
X128347D02*
Y49488D01*
Y60512D02*
Y62874D01*
X130709D01*
X141732Y47126D02*
X144095D01*
Y49488D01*
Y60512D02*
Y62874D01*
X141732D02*
X144095D01*
D17*
X155873Y52205D02*
X152874D01*
X153874D01*
X155873Y50205D01*
X154374Y51705D01*
X152874Y50205D01*
X161181Y141700D02*
Y138701D01*
Y139700D01*
X163180Y141700D01*
X161681Y140200D01*
X163180Y138701D01*
D18*
X112548Y22915D02*
X112023Y23440D01*
X110974D01*
X110449Y22915D01*
Y20816D01*
X110974Y20291D01*
X112023D01*
X112548Y20816D01*
Y21866D01*
X111498D01*
X113597Y20291D02*
Y23440D01*
X115697Y20291D01*
Y23440D01*
X116746D02*
Y20291D01*
X118320D01*
X118845Y20816D01*
Y22915D01*
X118320Y23440D01*
X116746D01*
X101787Y20291D02*
Y23440D01*
X103362D01*
X103886Y22915D01*
Y21866D01*
X103362Y21341D01*
X101787D01*
X102837D02*
X103886Y20291D01*
X104936Y23440D02*
X107035Y20291D01*
Y23440D02*
X104936Y20291D01*
X91551Y23440D02*
X93650D01*
X92601D01*
Y20291D01*
X94700Y23440D02*
X96799Y20291D01*
Y23440D02*
X94700Y20291D01*
X83808Y23440D02*
X81709D01*
Y21866D01*
X82758Y22390D01*
X83283D01*
X83808Y21866D01*
Y20816D01*
X83283Y20291D01*
X82233D01*
X81709Y20816D01*
X84857Y23440D02*
Y21341D01*
X85907Y20291D01*
X86956Y21341D01*
Y23440D01*
X173410Y77902D02*
Y75803D01*
X174985D01*
X174460Y76853D01*
Y77377D01*
X174985Y77902D01*
X176034D01*
X176559Y77377D01*
Y76328D01*
X176034Y75803D01*
X173410Y78952D02*
X175510D01*
X176559Y80001D01*
X175510Y81051D01*
X173410D01*
X147850Y86039D02*
Y89975D01*
X150474Y86039D01*
Y89975D01*
X151786Y86039D02*
Y89975D01*
X153754D01*
X154410Y89319D01*
Y88007D01*
X153754Y87351D01*
X151786D01*
X153098D02*
X154410Y86039D01*
X158346Y89319D02*
X157690Y89975D01*
X156378D01*
X155722Y89319D01*
Y88663D01*
X156378Y88007D01*
X157690D01*
X158346Y87351D01*
Y86695D01*
X157690Y86039D01*
X156378D01*
X155722Y86695D01*
X159658Y89975D02*
X162281D01*
X160969D01*
Y86039D01*
X149556Y99293D02*
X149031Y99818D01*
X147982D01*
X147457Y99293D01*
Y98768D01*
X147982Y98244D01*
X149031D01*
X149556Y97719D01*
Y97194D01*
X149031Y96669D01*
X147982D01*
X147457Y97194D01*
X150605Y99818D02*
Y96669D01*
X151655Y97719D01*
X152704Y96669D01*
Y99818D01*
X153754D02*
Y96669D01*
X155328D01*
X155853Y97194D01*
Y99293D01*
X155328Y99818D01*
X153754D01*
X156903D02*
X157952D01*
X157427D01*
Y96669D01*
X156903D01*
X157952D01*
X161101Y99818D02*
X160051D01*
X159526Y99293D01*
Y97194D01*
X160051Y96669D01*
X161101D01*
X161625Y97194D01*
Y99293D01*
X161101Y99818D01*
X149162Y109136D02*
X148637Y109660D01*
X147588D01*
X147063Y109136D01*
Y108611D01*
X147588Y108086D01*
X148637D01*
X149162Y107561D01*
Y107037D01*
X148637Y106512D01*
X147588D01*
X147063Y107037D01*
X150212Y109660D02*
Y106512D01*
X151261Y107561D01*
X152311Y106512D01*
Y109660D01*
X155459Y109136D02*
X154935Y109660D01*
X153885D01*
X153360Y109136D01*
Y107037D01*
X153885Y106512D01*
X154935D01*
X155459Y107037D01*
X156509Y109660D02*
Y106512D01*
X158608D01*
X159657Y109660D02*
Y106512D01*
Y107561D01*
X161756Y109660D01*
X160182Y108086D01*
X161756Y106512D01*
X173935Y116485D02*
X173410Y115960D01*
Y114911D01*
X173935Y114386D01*
X176034D01*
X176559Y114911D01*
Y115960D01*
X176034Y116485D01*
X174985D01*
Y115435D01*
X176559Y117534D02*
X173410D01*
X176559Y119633D01*
X173410D01*
Y120683D02*
X176559D01*
Y122257D01*
X176034Y122782D01*
X173935D01*
X173410Y122257D01*
Y120683D01*
X19898Y72623D02*
X23046D01*
X21472Y74197D01*
Y72098D01*
X22522Y84433D02*
X23046Y83908D01*
Y82859D01*
X22522Y82334D01*
X21997D01*
X21472Y82859D01*
Y83384D01*
Y82859D01*
X20947Y82334D01*
X20422D01*
X19898Y82859D01*
Y83908D01*
X20422Y84433D01*
X19898Y92570D02*
Y94669D01*
X21997Y92570D01*
X22522D01*
X23046Y93095D01*
Y94144D01*
X22522Y94669D01*
X19898Y104118D02*
Y103069D01*
Y103593D01*
X23046D01*
X22522Y104118D01*
X22915Y115405D02*
X23440Y115930D01*
Y116979D01*
X22915Y117504D01*
X20816D01*
X20291Y116979D01*
Y115930D01*
X20816Y115405D01*
X21866D01*
Y116454D01*
X20291Y114355D02*
X23440D01*
X20291Y112256D01*
X23440D01*
Y111207D02*
X20291D01*
Y109633D01*
X20816Y109108D01*
X22915D01*
X23440Y109633D01*
Y111207D01*
Y124066D02*
Y126165D01*
X21866D01*
X22390Y125116D01*
Y124591D01*
X21866Y124066D01*
X20816D01*
X20291Y124591D01*
Y125641D01*
X20816Y126165D01*
X23440Y123017D02*
X21341D01*
X20291Y121967D01*
X21341Y120918D01*
X23440D01*
X33231Y150000D02*
X29557Y153674D01*
X47244Y32838D02*
X43570Y29164D01*
X164406Y47638D02*
X168080Y43964D01*
X149213Y163619D02*
X152886Y167293D01*
X8874Y192100D02*
Y186039D01*
X12915D01*
X18976Y192100D02*
X14935D01*
Y189070D01*
X16955D01*
X14935D01*
Y186039D01*
X8874Y10998D02*
Y4937D01*
X12915D01*
X14935D02*
Y10998D01*
X17966D01*
X18976Y9988D01*
Y7967D01*
X17966Y6957D01*
X14935D01*
X16955D02*
X18976Y4937D01*
X178165D02*
Y10998D01*
X181196D01*
X182206Y9988D01*
Y7967D01*
X181196Y6957D01*
X178165D01*
X180186D02*
X182206Y4937D01*
X184226D02*
Y10998D01*
X187257D01*
X188267Y9988D01*
Y7967D01*
X187257Y6957D01*
X184226D01*
X186247D02*
X188267Y4937D01*
X178165Y186039D02*
Y192100D01*
X181196D01*
X182206Y191090D01*
Y189070D01*
X181196Y188060D01*
X178165D01*
X180186D02*
X182206Y186039D01*
X188267Y192100D02*
X184226D01*
Y189070D01*
X186247D01*
X184226D01*
Y186039D01*
X87075Y140945D02*
Y144881D01*
X89043D01*
X89699Y144225D01*
Y142913D01*
X89043Y142257D01*
X87075D01*
X88387D02*
X89699Y140945D01*
X91011D02*
X92322D01*
X91667D01*
Y144881D01*
X91011Y144225D01*
X94290Y140945D02*
X95602D01*
X94946D01*
Y144881D01*
X94290Y144225D01*
X86813Y93308D02*
Y97243D01*
X88780D01*
X89436Y96588D01*
Y95276D01*
X88780Y94620D01*
X86813D01*
X88125D02*
X89436Y93308D01*
X90748D02*
X92060D01*
X91404D01*
Y97243D01*
X90748Y96588D01*
X94028D02*
X94684Y97243D01*
X95996D01*
X96652Y96588D01*
Y93964D01*
X95996Y93308D01*
X94684D01*
X94028Y93964D01*
Y96588D01*
X57481Y156692D02*
X56694Y157480D01*
X55120D01*
X54333Y156692D01*
Y153544D01*
X55120Y152757D01*
X56694D01*
X57481Y153544D01*
X59056Y152757D02*
X60630D01*
X59843D01*
Y157480D01*
X59056Y156692D01*
X62991D02*
X63778Y157480D01*
X65353D01*
X66140Y156692D01*
Y155905D01*
X65353Y155118D01*
X66140Y154331D01*
Y153544D01*
X65353Y152757D01*
X63778D01*
X62991Y153544D01*
Y154331D01*
X63778Y155118D01*
X62991Y155905D01*
Y156692D01*
X63778Y155118D02*
X65353D01*
X34503Y185272D02*
X38744Y189513D01*
Y186686D01*
X41571Y186686D01*
X37330Y182445D01*
X40864Y178910D02*
X45106Y183151D01*
X40864D01*
X43692Y180324D01*
X11972Y34896D02*
X7731Y39137D01*
X10558D01*
X10558Y41965D01*
X14800Y37724D01*
X12679Y42672D02*
Y44086D01*
X14093Y45499D01*
X15507D01*
X16213Y44793D01*
Y43379D01*
X15507Y42672D01*
X16213Y43379D01*
X17627D01*
X18334Y42672D01*
Y41258D01*
X16920Y39844D01*
X15507D01*
X177810Y41965D02*
X182051Y46206D01*
Y43379D01*
X184878Y43379D01*
X180637Y39137D01*
X184878Y34896D02*
X182051Y37724D01*
X187706D01*
X188413Y38431D01*
Y39844D01*
X186999Y41258D01*
X185585D01*
X155592Y178516D02*
X151351Y182758D01*
X154179D01*
X154179Y185585D01*
X158420Y181344D01*
X159834Y182758D02*
X161247Y184171D01*
X160540Y183465D01*
X156299Y187706D01*
Y186292D01*
X127104Y148275D02*
X131102Y142277D01*
Y148275D02*
X127104Y142277D01*
X133102D02*
X135101D01*
X134101D01*
Y148275D01*
X133102Y147275D01*
X128544Y166865D02*
X132873Y169751D01*
X128544D02*
X132873Y166865D01*
Y174080D02*
Y171194D01*
X129987Y174080D01*
X129266D01*
X128544Y173359D01*
Y171915D01*
X129266Y171194D01*
X134778Y70865D02*
Y66274D01*
X135697Y65355D01*
X137533D01*
X138452Y66274D01*
Y70865D01*
X143962Y65355D02*
X140288D01*
X143962Y69029D01*
Y69947D01*
X143043Y70865D01*
X141207D01*
X140288Y69947D01*
X134190Y118353D02*
Y113355D01*
X135190Y112355D01*
X137189D01*
X138189Y113355D01*
Y118353D01*
X140188Y112355D02*
X142188D01*
X141188D01*
Y118353D01*
X140188Y117354D01*
X47704Y123359D02*
X47048Y124015D01*
X45736D01*
X45080Y123359D01*
Y120735D01*
X45736Y120079D01*
X47048D01*
X47704Y120735D01*
X49016Y120079D02*
X50328D01*
X49672D01*
Y124015D01*
X49016Y123359D01*
X54920Y124015D02*
X52296D01*
Y122047D01*
X53608Y122703D01*
X54264D01*
X54920Y122047D01*
Y120735D01*
X54264Y120079D01*
X52952D01*
X52296Y120735D01*
X47704Y115485D02*
X47048Y116141D01*
X45736D01*
X45080Y115485D01*
Y112861D01*
X45736Y112205D01*
X47048D01*
X47704Y112861D01*
X49016Y112205D02*
X50328D01*
X49672D01*
Y116141D01*
X49016Y115485D01*
X52296D02*
X52952Y116141D01*
X54264D01*
X54920Y115485D01*
Y114829D01*
X54264Y114173D01*
X53608D01*
X54264D01*
X54920Y113517D01*
Y112861D01*
X54264Y112205D01*
X52952D01*
X52296Y112861D01*
X89501Y135695D02*
X90157Y136351D01*
Y137663D01*
X89501Y138319D01*
X86877D01*
X86221Y137663D01*
Y136351D01*
X86877Y135695D01*
X86221Y132415D02*
X90157D01*
X88189Y134383D01*
Y131760D01*
X89501Y127821D02*
X90157Y128477D01*
Y129789D01*
X89501Y130445D01*
X86877D01*
X86221Y129789D01*
Y128477D01*
X86877Y127821D01*
X89501Y126509D02*
X90157Y125853D01*
Y124541D01*
X89501Y123886D01*
X88845D01*
X88189Y124541D01*
Y125198D01*
Y124541D01*
X87533Y123886D01*
X86877D01*
X86221Y124541D01*
Y125853D01*
X86877Y126509D01*
X89501Y103805D02*
X90157Y104462D01*
Y105773D01*
X89501Y106429D01*
X86877D01*
X86221Y105773D01*
Y104462D01*
X86877Y103805D01*
X90157Y102494D02*
Y99870D01*
X89501D01*
X86877Y102494D01*
X86221D01*
X89501Y111680D02*
X90157Y112336D01*
Y113647D01*
X89501Y114303D01*
X86877D01*
X86221Y113647D01*
Y112336D01*
X86877Y111680D01*
X89501Y110368D02*
X90157Y109712D01*
Y108400D01*
X89501Y107744D01*
X88845D01*
X88189Y108400D01*
X87533Y107744D01*
X86877D01*
X86221Y108400D01*
Y109712D01*
X86877Y110368D01*
X87533D01*
X88189Y109712D01*
X88845Y110368D01*
X89501D01*
X88189Y109712D02*
Y108400D01*
X89501Y119947D02*
X90157Y120603D01*
Y121915D01*
X89501Y122571D01*
X86877D01*
X86221Y121915D01*
Y120603D01*
X86877Y119947D01*
Y118635D02*
X86221Y117979D01*
Y116667D01*
X86877Y116012D01*
X89501D01*
X90157Y116667D01*
Y117979D01*
X89501Y118635D01*
X88845D01*
X88189Y117979D01*
Y116012D01*
X91469Y87270D02*
X92125Y87926D01*
Y89238D01*
X91469Y89894D01*
X88846D01*
X88190Y89238D01*
Y87926D01*
X88846Y87270D01*
X92125Y83334D02*
Y85958D01*
X90158D01*
X90813Y84646D01*
Y83990D01*
X90158Y83334D01*
X88846D01*
X88190Y83990D01*
Y85302D01*
X88846Y85958D01*
M02*
