G04*
G04 #@! TF.GenerationSoftware,Altium Limited,Altium Designer,20.0.10 (225)*
G04*
G04 Layer_Color=8388736*
%FSLAX25Y25*%
%MOIN*%
G70*
G01*
G75*
%ADD19R,0.04800X0.06800*%
%ADD20R,0.02375X0.03084*%
%ADD21R,0.03084X0.02375*%
%ADD22O,0.01981X0.07887*%
%ADD23O,0.07887X0.01981*%
%ADD24C,0.07099*%
%ADD25C,0.06706*%
%ADD26R,0.07887X0.16548*%
%ADD27R,0.16548X0.07887*%
%ADD28R,0.06115X0.06115*%
%ADD29C,0.06115*%
%ADD30R,0.06706X0.06706*%
%ADD31R,0.06706X0.06706*%
%ADD32C,0.05918*%
%ADD33P,0.09483X4X270.0*%
%ADD34P,0.09483X4X180.0*%
%ADD35R,0.05839X0.05839*%
%ADD36C,0.05839*%
D19*
X75134Y142913D02*
D03*
X83134D02*
D03*
Y95276D02*
D03*
X75134D02*
D03*
X84709Y86614D02*
D03*
X76709D02*
D03*
X83134Y119291D02*
D03*
X75134D02*
D03*
X58598Y122047D02*
D03*
X66598D02*
D03*
X83134Y103543D02*
D03*
X75134D02*
D03*
X83134Y111417D02*
D03*
X75134D02*
D03*
X83134Y127165D02*
D03*
X75134D02*
D03*
X83134Y135039D02*
D03*
X75134D02*
D03*
X58598Y114173D02*
D03*
X66598D02*
D03*
D20*
X132382Y48327D02*
D03*
X134941D02*
D03*
X137500D02*
D03*
X140059D02*
D03*
Y61673D02*
D03*
X137500D02*
D03*
X134941D02*
D03*
X132382D02*
D03*
D21*
X142894Y51161D02*
D03*
Y53720D02*
D03*
Y56279D02*
D03*
Y58839D02*
D03*
X129547D02*
D03*
Y56279D02*
D03*
Y53720D02*
D03*
Y51161D02*
D03*
D22*
X109252Y113976D02*
D03*
X111221D02*
D03*
X113189D02*
D03*
X115157D02*
D03*
X117126D02*
D03*
X119095D02*
D03*
X121063D02*
D03*
X123031D02*
D03*
X125000D02*
D03*
X126969D02*
D03*
X128937D02*
D03*
X130905D02*
D03*
Y82087D02*
D03*
X128937D02*
D03*
X126969D02*
D03*
X125000D02*
D03*
X123031D02*
D03*
X121063D02*
D03*
X119095D02*
D03*
X117126D02*
D03*
X115157D02*
D03*
X113189D02*
D03*
X111221D02*
D03*
X109252D02*
D03*
D23*
X136024Y108858D02*
D03*
Y106890D02*
D03*
Y104921D02*
D03*
Y102953D02*
D03*
Y100984D02*
D03*
Y99016D02*
D03*
Y97047D02*
D03*
Y95079D02*
D03*
Y93110D02*
D03*
Y91142D02*
D03*
Y89173D02*
D03*
Y87205D02*
D03*
X104134D02*
D03*
Y89173D02*
D03*
Y91142D02*
D03*
Y93110D02*
D03*
Y95079D02*
D03*
Y97047D02*
D03*
Y99016D02*
D03*
Y100984D02*
D03*
Y102953D02*
D03*
Y104921D02*
D03*
Y106890D02*
D03*
Y108858D02*
D03*
D24*
X157874Y67205D02*
D03*
Y57205D02*
D03*
X146181Y143701D02*
D03*
X156181D02*
D03*
D25*
X41535Y102953D02*
D03*
Y85236D02*
D03*
X67126Y102953D02*
D03*
Y85236D02*
D03*
X29528Y73543D02*
D03*
Y83543D02*
D03*
Y93543D02*
D03*
Y103543D02*
D03*
Y113543D02*
D03*
X94646Y29528D02*
D03*
X104646D02*
D03*
X114646D02*
D03*
X167323Y88425D02*
D03*
Y98425D02*
D03*
Y108425D02*
D03*
Y118425D02*
D03*
X32283Y164567D02*
D03*
X25212Y157496D02*
D03*
X164567Y164567D02*
D03*
X157496Y171638D02*
D03*
X164567Y32283D02*
D03*
X171638Y39355D02*
D03*
X32283Y32283D02*
D03*
X39355Y25212D02*
D03*
D26*
X79528Y165945D02*
D03*
D27*
X98425Y176969D02*
D03*
Y154134D02*
D03*
D28*
X70079Y155118D02*
D03*
D29*
X50394Y155118D02*
D03*
D30*
X29528Y123543D02*
D03*
X167323Y78425D02*
D03*
D31*
X84646Y29528D02*
D03*
D32*
X136811Y170472D02*
D03*
X124606D02*
D03*
D33*
X39355Y171638D02*
D03*
X157496Y25212D02*
D03*
D34*
X171638Y157496D02*
D03*
X25212Y39355D02*
D03*
D35*
X108504Y133071D02*
D03*
D36*
X127717D02*
D03*
M02*
