G04*
G04 #@! TF.GenerationSoftware,Altium Limited,Altium Designer,20.0.10 (225)*
G04*
G04 Layer_Physical_Order=1*
G04 Layer_Color=255*
%FSLAX25Y25*%
%MOIN*%
G70*
G01*
G75*
%ADD18C,0.01000*%
%ADD37R,0.04000X0.06000*%
%ADD38R,0.01575X0.02284*%
%ADD39R,0.02284X0.01575*%
%ADD40O,0.01181X0.07087*%
%ADD41O,0.07087X0.01181*%
%ADD42C,0.01181*%
%ADD43C,0.06299*%
%ADD44C,0.05906*%
%ADD45R,0.07087X0.15748*%
%ADD46R,0.15748X0.07087*%
%ADD47R,0.05315X0.05315*%
%ADD48C,0.05315*%
%ADD49R,0.05906X0.05906*%
%ADD50R,0.05906X0.05906*%
%ADD51C,0.05118*%
%ADD52P,0.08352X4X270.0*%
%ADD53P,0.08352X4X180.0*%
%ADD54R,0.05039X0.05039*%
%ADD55C,0.05039*%
%ADD56C,0.02362*%
%ADD57C,0.03150*%
G36*
X186805Y193914D02*
X188502Y193399D01*
X190067Y192563D01*
X191438Y191438D01*
X192563Y190067D01*
X193399Y188502D01*
X193914Y186805D01*
X194081Y185115D01*
X194071Y185039D01*
Y11811D01*
X194081Y11736D01*
X193914Y10046D01*
X193399Y8348D01*
X192563Y6784D01*
X191438Y5413D01*
X190067Y4287D01*
X188502Y3451D01*
X186805Y2936D01*
X185527Y2810D01*
X185039Y2780D01*
X184545Y2780D01*
X12307D01*
X11811Y2780D01*
X11324Y2810D01*
X10046Y2936D01*
X8348Y3451D01*
X6784Y4287D01*
X5413Y5413D01*
X4287Y6784D01*
X3451Y8348D01*
X2936Y10046D01*
X2810Y11324D01*
X2780Y11811D01*
X2780Y12311D01*
X2780Y184544D01*
X2780Y185039D01*
X2810Y185527D01*
X2936Y186805D01*
X3451Y188502D01*
X4287Y190067D01*
X5413Y191438D01*
X6784Y192563D01*
X8348Y193399D01*
X10046Y193914D01*
X11736Y194081D01*
X11811Y194071D01*
X185039D01*
X185115Y194081D01*
X186805Y193914D01*
D02*
G37*
%LPC*%
G36*
X107087Y181299D02*
X89764D01*
Y172638D01*
X107087D01*
Y181299D01*
D02*
G37*
G36*
X157496Y175410D02*
X156519Y175282D01*
X155610Y174905D01*
X154828Y174305D01*
X154229Y173524D01*
X153852Y172614D01*
X153724Y171638D01*
X153852Y170662D01*
X154229Y169752D01*
X154828Y168971D01*
X155610Y168371D01*
X156519Y167994D01*
X157496Y167866D01*
X158472Y167994D01*
X159382Y168371D01*
X160163Y168971D01*
X160763Y169752D01*
X161140Y170662D01*
X161268Y171638D01*
X161140Y172614D01*
X160763Y173524D01*
X160163Y174305D01*
X159382Y174905D01*
X158472Y175282D01*
X157496Y175410D01*
D02*
G37*
G36*
X136811Y173848D02*
X135937Y173733D01*
X135123Y173396D01*
X134424Y172859D01*
X133888Y172160D01*
X133551Y171346D01*
X133436Y170472D01*
X133551Y169599D01*
X133888Y168785D01*
X134424Y168086D01*
X135123Y167549D01*
X135937Y167212D01*
X136811Y167097D01*
X137685Y167212D01*
X138499Y167549D01*
X139198Y168086D01*
X139734Y168785D01*
X140071Y169599D01*
X140186Y170472D01*
X140071Y171346D01*
X139734Y172160D01*
X139198Y172859D01*
X138499Y173396D01*
X137685Y173733D01*
X136811Y173848D01*
D02*
G37*
G36*
X124606D02*
X123733Y173733D01*
X122919Y173396D01*
X122220Y172859D01*
X121683Y172160D01*
X121346Y171346D01*
X121231Y170472D01*
X121346Y169599D01*
X121683Y168785D01*
X122220Y168086D01*
X122919Y167549D01*
X123733Y167212D01*
X124606Y167097D01*
X125480Y167212D01*
X126294Y167549D01*
X126993Y168086D01*
X127529Y168785D01*
X127867Y169599D01*
X127982Y170472D01*
X127867Y171346D01*
X127529Y172160D01*
X126993Y172859D01*
X126294Y173396D01*
X125480Y173733D01*
X124606Y173848D01*
D02*
G37*
G36*
X164567Y168339D02*
X163591Y168211D01*
X162681Y167834D01*
X161899Y167234D01*
X161300Y166453D01*
X160923Y165543D01*
X160794Y164567D01*
X160923Y163591D01*
X161300Y162681D01*
X161899Y161899D01*
X162681Y161300D01*
X163591Y160923D01*
X164567Y160794D01*
X165543Y160923D01*
X166453Y161300D01*
X167234Y161899D01*
X167834Y162681D01*
X168211Y163591D01*
X168339Y164567D01*
X168211Y165543D01*
X167834Y166453D01*
X167234Y167234D01*
X166453Y167834D01*
X165543Y168211D01*
X164567Y168339D01*
D02*
G37*
G36*
X32283D02*
X31307Y168211D01*
X30397Y167834D01*
X29616Y167234D01*
X29016Y166453D01*
X28640Y165543D01*
X28511Y164567D01*
X28640Y163591D01*
X29016Y162681D01*
X29616Y161899D01*
X30397Y161300D01*
X31307Y160923D01*
X32283Y160794D01*
X33260Y160923D01*
X34170Y161300D01*
X34951Y161899D01*
X35550Y162681D01*
X35927Y163591D01*
X36056Y164567D01*
X35927Y165543D01*
X35550Y166453D01*
X34951Y167234D01*
X34170Y167834D01*
X33260Y168211D01*
X32283Y168339D01*
D02*
G37*
G36*
X83858Y174606D02*
X75197D01*
Y157283D01*
X83858D01*
Y174606D01*
D02*
G37*
G36*
X25212Y161268D02*
X24236Y161140D01*
X23326Y160763D01*
X22545Y160163D01*
X21945Y159382D01*
X21568Y158472D01*
X21440Y157496D01*
X21568Y156519D01*
X21945Y155610D01*
X22545Y154828D01*
X23326Y154229D01*
X24236Y153852D01*
X25212Y153724D01*
X26189Y153852D01*
X27099Y154229D01*
X27880Y154828D01*
X28479Y155610D01*
X28856Y156519D01*
X28985Y157496D01*
X28856Y158472D01*
X28479Y159382D01*
X27880Y160163D01*
X27099Y160763D01*
X26189Y161140D01*
X25212Y161268D01*
D02*
G37*
G36*
X50394Y158593D02*
X49494Y158474D01*
X48656Y158127D01*
X47937Y157575D01*
X47385Y156855D01*
X47038Y156017D01*
X46919Y155118D01*
X47038Y154219D01*
X47385Y153381D01*
X47937Y152661D01*
X48656Y152109D01*
X49494Y151762D01*
X50394Y151644D01*
X51293Y151762D01*
X52131Y152109D01*
X52851Y152661D01*
X53403Y153381D01*
X53750Y154219D01*
X53868Y155118D01*
X53750Y156017D01*
X53403Y156855D01*
X52851Y157575D01*
X52131Y158127D01*
X51293Y158474D01*
X50394Y158593D01*
D02*
G37*
G36*
X107087Y158465D02*
X89764D01*
Y149803D01*
X107087D01*
Y158465D01*
D02*
G37*
G36*
X136614Y149807D02*
X135846Y149654D01*
X135195Y149219D01*
X134995Y148920D01*
X134510Y148823D01*
X134084Y148539D01*
X126578Y141033D01*
X126116Y141224D01*
Y146309D01*
X126222Y146381D01*
X126657Y147032D01*
X126810Y147800D01*
X126657Y148568D01*
X126222Y149219D01*
X125571Y149654D01*
X124803Y149807D01*
X124035Y149654D01*
X123384Y149219D01*
X122949Y148568D01*
X122796Y147800D01*
X122949Y147032D01*
X123384Y146381D01*
X123491Y146309D01*
Y140701D01*
X107492Y124703D01*
X101097D01*
X101025Y124810D01*
X100374Y125245D01*
X99606Y125398D01*
X98838Y125245D01*
X98187Y124810D01*
X97752Y124159D01*
X97599Y123390D01*
X97752Y122622D01*
X98187Y121971D01*
X98838Y121536D01*
X99606Y121383D01*
X99962Y121454D01*
X100388Y121029D01*
X100355Y120866D01*
X100508Y120098D01*
X100943Y119447D01*
X101594Y119012D01*
X102362Y118859D01*
X103130Y119012D01*
X103781Y119447D01*
X103853Y119553D01*
X108268D01*
X108770Y119653D01*
X109196Y119938D01*
X124860Y135602D01*
X125237Y135272D01*
X125182Y135200D01*
X124828Y134739D01*
X124495Y133934D01*
X124381Y133071D01*
X124495Y132208D01*
X124828Y131403D01*
X125358Y130712D01*
X126049Y130182D01*
X126853Y129849D01*
X127717Y129735D01*
X128580Y129849D01*
X129384Y130182D01*
X130075Y130712D01*
X130605Y131403D01*
X130938Y132208D01*
X131052Y133071D01*
X130938Y133934D01*
X130605Y134739D01*
X130075Y135430D01*
X129384Y135960D01*
X128580Y136293D01*
X127717Y136407D01*
X126853Y136293D01*
X126049Y135960D01*
X125588Y135606D01*
X125515Y135550D01*
X125185Y135927D01*
X135461Y146203D01*
X135846Y145946D01*
X136614Y145793D01*
X137382Y145946D01*
X138033Y146381D01*
X138469Y147032D01*
X138621Y147800D01*
X138469Y148568D01*
X138033Y149219D01*
X137382Y149654D01*
X136614Y149807D01*
D02*
G37*
G36*
X143253Y154555D02*
X122047D01*
X121510Y154448D01*
X121054Y154143D01*
X111229Y144318D01*
X85921D01*
Y146701D01*
X80347D01*
Y139451D01*
X80134Y139039D01*
X80134Y138714D01*
Y135539D01*
X86134D01*
Y138714D01*
X86134Y139039D01*
X85921Y139451D01*
Y141508D01*
X111811D01*
X112349Y141615D01*
X112804Y141920D01*
X122629Y151745D01*
X142671D01*
X144658Y149758D01*
Y147331D01*
X144196Y147140D01*
X143373Y146509D01*
X142742Y145686D01*
X142345Y144729D01*
X142210Y143701D01*
X142345Y142673D01*
X142742Y141715D01*
X143373Y140893D01*
X144196Y140262D01*
X145153Y139865D01*
X146181Y139730D01*
X147209Y139865D01*
X148167Y140262D01*
X148989Y140893D01*
X149620Y141715D01*
X150017Y142673D01*
X150152Y143701D01*
X150017Y144729D01*
X149620Y145686D01*
X148989Y146509D01*
X148167Y147140D01*
X147468Y147429D01*
Y150340D01*
X147361Y150877D01*
X147056Y151333D01*
X144247Y154143D01*
X143791Y154448D01*
X143253Y154555D01*
D02*
G37*
G36*
X111811Y136378D02*
X105197D01*
Y129764D01*
X111811D01*
Y136378D01*
D02*
G37*
G36*
X86134Y134539D02*
X80134D01*
Y131039D01*
Y127665D01*
X86134D01*
Y131039D01*
Y134539D01*
D02*
G37*
G36*
X69598Y126047D02*
X67098D01*
Y122547D01*
X69598D01*
Y126047D01*
D02*
G37*
G36*
X66098D02*
X63598D01*
Y122547D01*
X66098D01*
Y126047D01*
D02*
G37*
G36*
X33268Y127284D02*
X25787D01*
Y119803D01*
X33268D01*
Y127284D01*
D02*
G37*
G36*
X86134Y126665D02*
X80134D01*
Y123165D01*
Y119791D01*
X86134D01*
Y123165D01*
Y126665D01*
D02*
G37*
G36*
X69598Y121547D02*
X66598D01*
X63598D01*
Y118047D01*
Y114673D01*
X66598D01*
X69598D01*
Y118047D01*
Y121547D01*
D02*
G37*
G36*
X156181Y147672D02*
X155153Y147536D01*
X154196Y147140D01*
X153373Y146509D01*
X152742Y145686D01*
X152345Y144729D01*
X152210Y143701D01*
X152345Y142673D01*
X152742Y141715D01*
X153373Y140893D01*
X154196Y140262D01*
X154593Y140097D01*
Y129842D01*
X154693Y129340D01*
X154977Y128914D01*
X163917Y119975D01*
X163679Y119402D01*
X163550Y118425D01*
X163679Y117449D01*
X164056Y116539D01*
X164655Y115758D01*
X165437Y115158D01*
X166347Y114781D01*
X167323Y114653D01*
X168299Y114781D01*
X169209Y115158D01*
X169990Y115758D01*
X170590Y116539D01*
X170967Y117449D01*
X171095Y118425D01*
X170967Y119402D01*
X170590Y120311D01*
X169990Y121093D01*
X169209Y121692D01*
X168299Y122069D01*
X167323Y122198D01*
X166347Y122069D01*
X165773Y121832D01*
X157218Y130386D01*
Y139869D01*
X158167Y140262D01*
X158989Y140893D01*
X159620Y141715D01*
X160017Y142673D01*
X160152Y143701D01*
X160017Y144729D01*
X159620Y145686D01*
X158989Y146509D01*
X158167Y147140D01*
X157209Y147536D01*
X156181Y147672D01*
D02*
G37*
G36*
X108752Y118451D02*
X108631Y118427D01*
X108105Y118076D01*
X107754Y117550D01*
X107630Y116929D01*
Y114476D01*
X108752D01*
Y118451D01*
D02*
G37*
G36*
X157742Y115355D02*
Y113730D01*
X159367D01*
X159297Y114081D01*
X158815Y114803D01*
X158093Y115285D01*
X157742Y115355D01*
D02*
G37*
G36*
X156742D02*
X156391Y115285D01*
X155670Y114803D01*
X155188Y114081D01*
X155118Y113730D01*
X156742D01*
Y115355D01*
D02*
G37*
G36*
X86134Y118791D02*
X80134D01*
Y115291D01*
Y111917D01*
X86134D01*
Y115291D01*
Y118791D01*
D02*
G37*
G36*
X159367Y112730D02*
X157742D01*
Y111106D01*
X158093Y111176D01*
X158815Y111658D01*
X159297Y112379D01*
X159367Y112730D01*
D02*
G37*
G36*
X156742D02*
X155118D01*
X155188Y112379D01*
X155670Y111658D01*
X156391Y111176D01*
X156742Y111106D01*
Y112730D01*
D02*
G37*
G36*
X69598Y113673D02*
X67098D01*
Y110173D01*
X69598D01*
Y113673D01*
D02*
G37*
G36*
X66098D02*
X63598D01*
Y110173D01*
X66098D01*
Y113673D01*
D02*
G37*
G36*
X29528Y117316D02*
X28551Y117187D01*
X27641Y116810D01*
X26860Y116211D01*
X26261Y115429D01*
X25884Y114520D01*
X25755Y113543D01*
X25884Y112567D01*
X26261Y111657D01*
X26860Y110876D01*
X27641Y110276D01*
X28551Y109899D01*
X29528Y109771D01*
X30504Y109899D01*
X31414Y110276D01*
X32195Y110876D01*
X32795Y111657D01*
X33171Y112567D01*
X33300Y113543D01*
X33171Y114520D01*
X32795Y115429D01*
X32195Y116211D01*
X31414Y116810D01*
X30504Y117187D01*
X29528Y117316D01*
D02*
G37*
G36*
X138976Y110480D02*
X136524D01*
Y109358D01*
X140499D01*
X140475Y109479D01*
X140123Y110005D01*
X139597Y110356D01*
X138976Y110480D01*
D02*
G37*
G36*
X167323Y112198D02*
X166347Y112069D01*
X165437Y111692D01*
X164655Y111093D01*
X164056Y110311D01*
X163679Y109402D01*
X163550Y108425D01*
X163679Y107449D01*
X164056Y106539D01*
X164655Y105758D01*
X165437Y105158D01*
X166347Y104781D01*
X167323Y104653D01*
X168299Y104781D01*
X169209Y105158D01*
X169990Y105758D01*
X170590Y106539D01*
X170967Y107449D01*
X171095Y108425D01*
X170967Y109402D01*
X170590Y110311D01*
X169990Y111093D01*
X169209Y111692D01*
X168299Y112069D01*
X167323Y112198D01*
D02*
G37*
G36*
X86134Y110917D02*
X80134D01*
Y107417D01*
Y104043D01*
X86134D01*
Y107417D01*
Y110917D01*
D02*
G37*
G36*
X41535Y106725D02*
X40559Y106597D01*
X39649Y106220D01*
X38868Y105620D01*
X38268Y104839D01*
X37892Y103929D01*
X37763Y102953D01*
X37892Y101976D01*
X38268Y101067D01*
X38868Y100285D01*
X39649Y99686D01*
X40559Y99309D01*
X41535Y99180D01*
X42512Y99309D01*
X43422Y99686D01*
X44203Y100285D01*
X44802Y101067D01*
X45179Y101976D01*
X45308Y102953D01*
X45179Y103929D01*
X44802Y104839D01*
X44203Y105620D01*
X43422Y106220D01*
X42512Y106597D01*
X41535Y106725D01*
D02*
G37*
G36*
X65067Y97400D02*
Y95776D01*
X66691D01*
X66622Y96127D01*
X66139Y96848D01*
X65418Y97330D01*
X65067Y97400D01*
D02*
G37*
G36*
X64067D02*
X63716Y97330D01*
X62994Y96848D01*
X62512Y96127D01*
X62443Y95776D01*
X64067D01*
Y97400D01*
D02*
G37*
G36*
X167323Y102198D02*
X166347Y102069D01*
X165437Y101692D01*
X164655Y101093D01*
X164056Y100311D01*
X163679Y99402D01*
X163550Y98425D01*
X163679Y97449D01*
X164056Y96539D01*
X164655Y95758D01*
X165437Y95158D01*
X166347Y94781D01*
X167323Y94653D01*
X168299Y94781D01*
X169209Y95158D01*
X169990Y95758D01*
X170590Y96539D01*
X170967Y97449D01*
X171095Y98425D01*
X170967Y99402D01*
X170590Y100311D01*
X169990Y101093D01*
X169209Y101692D01*
X168299Y102069D01*
X167323Y102198D01*
D02*
G37*
G36*
X66691Y94776D02*
X65067D01*
Y93151D01*
X65418Y93221D01*
X66139Y93703D01*
X66622Y94425D01*
X66691Y94776D01*
D02*
G37*
G36*
X64067D02*
X62443D01*
X62512Y94425D01*
X62994Y93703D01*
X63716Y93221D01*
X64067Y93151D01*
Y94776D01*
D02*
G37*
G36*
X67626Y89157D02*
Y85736D01*
X71047D01*
X70977Y86268D01*
X70579Y87230D01*
X69945Y88055D01*
X69119Y88689D01*
X68158Y89087D01*
X67626Y89157D01*
D02*
G37*
G36*
X42035D02*
Y85736D01*
X45456D01*
X45386Y86268D01*
X44988Y87230D01*
X44355Y88055D01*
X43529Y88689D01*
X42567Y89087D01*
X42035Y89157D01*
D02*
G37*
G36*
X66626D02*
X66094Y89087D01*
X65133Y88689D01*
X64307Y88055D01*
X63673Y87230D01*
X63275Y86268D01*
X63205Y85736D01*
X66626D01*
Y89157D01*
D02*
G37*
G36*
X41035D02*
X40504Y89087D01*
X39542Y88689D01*
X38716Y88055D01*
X38083Y87230D01*
X37684Y86268D01*
X37614Y85736D01*
X41035D01*
Y89157D01*
D02*
G37*
G36*
X167323Y92198D02*
X166347Y92069D01*
X165437Y91692D01*
X164655Y91093D01*
X164056Y90311D01*
X163679Y89402D01*
X163550Y88425D01*
X163679Y87449D01*
X164056Y86539D01*
X164655Y85758D01*
X165437Y85158D01*
X166347Y84781D01*
X167323Y84653D01*
X168299Y84781D01*
X169209Y85158D01*
X169990Y85758D01*
X170590Y86539D01*
X170967Y87449D01*
X171095Y88425D01*
X170967Y89402D01*
X170590Y90311D01*
X169990Y91093D01*
X169209Y91692D01*
X168299Y92069D01*
X167323Y92198D01*
D02*
G37*
G36*
X71047Y84736D02*
X67626D01*
Y81315D01*
X68158Y81385D01*
X69119Y81783D01*
X69945Y82417D01*
X70579Y83243D01*
X70977Y84204D01*
X71047Y84736D01*
D02*
G37*
G36*
X45456D02*
X42035D01*
Y81315D01*
X42567Y81385D01*
X43529Y81783D01*
X44355Y82417D01*
X44988Y83243D01*
X45386Y84204D01*
X45456Y84736D01*
D02*
G37*
G36*
X66626D02*
X63205D01*
X63275Y84204D01*
X63673Y83243D01*
X64307Y82417D01*
X65133Y81783D01*
X66094Y81385D01*
X66626Y81315D01*
Y84736D01*
D02*
G37*
G36*
X41035D02*
X37614D01*
X37684Y84204D01*
X38083Y83243D01*
X38716Y82417D01*
X39542Y81783D01*
X40504Y81385D01*
X41035Y81315D01*
Y84736D01*
D02*
G37*
G36*
X171638Y162785D02*
X166349Y157496D01*
X171638Y152207D01*
X173354Y153923D01*
X179790Y147488D01*
Y22985D01*
X168748Y11942D01*
X146727D01*
X146575Y12443D01*
X146598Y12458D01*
X155779Y21640D01*
X157496Y19923D01*
X162785Y25212D01*
X157496Y30502D01*
X152207Y25212D01*
X153923Y23496D01*
X145126Y14698D01*
X67079D01*
X63124Y18654D01*
Y22047D01*
Y26228D01*
X65287Y28391D01*
X65748Y28145D01*
X65710Y27953D01*
X65862Y27185D01*
X66297Y26534D01*
X66948Y26098D01*
X67716Y25946D01*
X68485Y26098D01*
X69136Y26534D01*
X69571Y27185D01*
X69724Y27953D01*
X69699Y28078D01*
X72101Y30481D01*
X72528Y30352D01*
X72604Y30277D01*
X73022Y29652D01*
X73673Y29217D01*
X74441Y29064D01*
X75209Y29217D01*
X75860Y29652D01*
X76295Y30303D01*
X76448Y31071D01*
X76412Y31249D01*
X80465Y35302D01*
X85039D01*
X85542Y35401D01*
X85967Y35686D01*
X121991Y71710D01*
X122276Y72136D01*
X122376Y72638D01*
Y77359D01*
X122876Y77760D01*
X123031Y77729D01*
X123569Y77836D01*
X124016Y78134D01*
X124462Y77836D01*
X125000Y77729D01*
X125538Y77836D01*
X125984Y78134D01*
X126431Y77836D01*
X126969Y77729D01*
X127506Y77836D01*
X127953Y78134D01*
X128399Y77836D01*
X128937Y77729D01*
X129475Y77836D01*
X129741Y78014D01*
X129759Y77987D01*
X130285Y77636D01*
X130405Y77612D01*
Y82087D01*
Y86913D01*
X130250Y87040D01*
Y91536D01*
X130150Y92038D01*
X129865Y92464D01*
X128478Y93851D01*
Y96935D01*
X128585Y97006D01*
X129020Y97657D01*
X129172Y98425D01*
X129020Y99193D01*
X128585Y99844D01*
X128478Y99916D01*
Y102212D01*
X131194Y104928D01*
X131206Y104928D01*
X131704Y104731D01*
X131773Y104384D01*
X132071Y103937D01*
X131773Y103490D01*
X131666Y102953D01*
X131773Y102415D01*
X132071Y101969D01*
X131773Y101522D01*
X131666Y100984D01*
X131773Y100447D01*
X132071Y100000D01*
X131773Y99553D01*
X131666Y99016D01*
X131773Y98478D01*
X132071Y98032D01*
X131773Y97585D01*
X131666Y97047D01*
X131773Y96510D01*
X132071Y96063D01*
X131773Y95616D01*
X131666Y95079D01*
X131773Y94541D01*
X132071Y94095D01*
X131773Y93648D01*
X131666Y93110D01*
X131773Y92573D01*
X132071Y92126D01*
X131773Y91679D01*
X131666Y91142D01*
X131773Y90604D01*
X132071Y90158D01*
X131773Y89711D01*
X131666Y89173D01*
X131773Y88636D01*
X132071Y88189D01*
X131773Y87742D01*
X131666Y87205D01*
X131712Y86972D01*
X131710Y86966D01*
X131405Y86698D01*
Y82587D01*
X132527D01*
Y85039D01*
X132453Y85413D01*
X132832Y85844D01*
X132838Y85846D01*
X133071Y85800D01*
X134711D01*
Y79481D01*
X129378Y74147D01*
X127081D01*
X127010Y74254D01*
X126359Y74689D01*
X125591Y74842D01*
X124822Y74689D01*
X124171Y74254D01*
X123736Y73603D01*
X123583Y72835D01*
X123736Y72067D01*
X124171Y71415D01*
X124822Y70980D01*
X125591Y70828D01*
X126359Y70980D01*
X127010Y71415D01*
X127081Y71522D01*
X128855D01*
X129046Y71060D01*
X93717Y35731D01*
X93433Y35306D01*
X93333Y34803D01*
Y33032D01*
X92760Y32795D01*
X91978Y32195D01*
X91379Y31414D01*
X91002Y30504D01*
X90873Y29528D01*
X91002Y28551D01*
X91379Y27641D01*
X91978Y26860D01*
X92760Y26261D01*
X93669Y25884D01*
X94646Y25755D01*
X95622Y25884D01*
X96532Y26261D01*
X97313Y26860D01*
X97913Y27641D01*
X98290Y28551D01*
X98418Y29528D01*
X98290Y30504D01*
X97913Y31414D01*
X97313Y32195D01*
X96532Y32795D01*
X95958Y33032D01*
Y34259D01*
X102556Y40857D01*
X103018Y40666D01*
Y32902D01*
X102760Y32795D01*
X101978Y32195D01*
X101379Y31414D01*
X101002Y30504D01*
X100873Y29528D01*
X101002Y28551D01*
X101379Y27641D01*
X101978Y26860D01*
X102760Y26261D01*
X103669Y25884D01*
X104646Y25755D01*
X105622Y25884D01*
X106532Y26261D01*
X107313Y26860D01*
X107913Y27641D01*
X108290Y28551D01*
X108418Y29528D01*
X108290Y30504D01*
X107913Y31414D01*
X107313Y32195D01*
X106532Y32795D01*
X105643Y33163D01*
Y41189D01*
X140527Y76072D01*
X140811Y76498D01*
X140911Y77000D01*
Y78031D01*
X143633Y80753D01*
X144094Y80507D01*
X144056Y80315D01*
X144209Y79547D01*
X144644Y78896D01*
X145295Y78461D01*
X145719Y78376D01*
Y45407D01*
X138813D01*
Y46398D01*
X141634D01*
Y49587D01*
X144823D01*
Y52146D01*
Y54705D01*
Y57264D01*
Y60413D01*
X144216D01*
Y61811D01*
Y71731D01*
X144333Y71809D01*
X144768Y72460D01*
X144921Y73228D01*
X144768Y73996D01*
X144333Y74648D01*
X143682Y75083D01*
X142913Y75235D01*
X142145Y75083D01*
X141494Y74648D01*
X141059Y73996D01*
X140906Y73228D01*
X141059Y72460D01*
X141494Y71809D01*
X141591Y71745D01*
Y63602D01*
X130807D01*
Y62986D01*
X130177D01*
X129675Y62886D01*
X129249Y62601D01*
X128619Y61971D01*
X128334Y61546D01*
X128235Y61043D01*
Y60413D01*
X127618D01*
Y57612D01*
X126294D01*
X126222Y57718D01*
X125571Y58153D01*
X124803Y58306D01*
X124035Y58153D01*
X123384Y57718D01*
X122949Y57067D01*
X122796Y56299D01*
X122949Y55531D01*
X123384Y54880D01*
X124035Y54445D01*
X124803Y54292D01*
X125571Y54445D01*
X126222Y54880D01*
X126294Y54987D01*
X127406D01*
Y54220D01*
X131689D01*
Y55508D01*
X131476D01*
Y57264D01*
Y59744D01*
X140965D01*
Y57264D01*
Y54705D01*
Y52146D01*
Y50256D01*
X134169D01*
Y50468D01*
X132882D01*
Y48327D01*
Y46185D01*
X133628D01*
Y44712D01*
X133728Y44209D01*
X134013Y43783D01*
X136417Y41379D01*
X136843Y41094D01*
X137345Y40995D01*
X147399D01*
X147901Y41094D01*
X148327Y41379D01*
X149747Y42799D01*
X150032Y43225D01*
X150131Y43727D01*
Y78311D01*
X150631Y78578D01*
X150807Y78461D01*
X151575Y78308D01*
X152343Y78461D01*
X152994Y78896D01*
X153429Y79547D01*
X153582Y80315D01*
X153429Y81083D01*
X152994Y81734D01*
X152887Y81805D01*
Y119816D01*
X152787Y120318D01*
X152503Y120744D01*
X148697Y124550D01*
X148271Y124835D01*
X147769Y124935D01*
X123228D01*
X122726Y124835D01*
X122300Y124550D01*
X119606Y121856D01*
X119414Y121951D01*
X119194Y122151D01*
X119330Y122835D01*
X119177Y123603D01*
X118742Y124254D01*
X118091Y124689D01*
X117323Y124842D01*
X116555Y124689D01*
X115904Y124254D01*
X115469Y123603D01*
X115316Y122835D01*
X115469Y122067D01*
X115813Y121551D01*
Y118789D01*
X115418Y118452D01*
X115159Y118485D01*
X114975Y118740D01*
X114860Y118985D01*
X114999Y119685D01*
X114846Y120453D01*
X114411Y121104D01*
X113760Y121539D01*
X112992Y121692D01*
X112224Y121539D01*
X111573Y121104D01*
X111138Y120453D01*
X111045Y119988D01*
X110327Y119270D01*
X110042Y118844D01*
X109752Y118675D01*
Y113976D01*
Y109501D01*
X109873Y109525D01*
X110399Y109877D01*
X110416Y109904D01*
X110683Y109726D01*
X111221Y109619D01*
X111758Y109726D01*
X112205Y110024D01*
X112651Y109726D01*
X113189Y109619D01*
X113727Y109726D01*
X114173Y110024D01*
X114620Y109726D01*
X115157Y109619D01*
X115695Y109726D01*
X116142Y110024D01*
X116588Y109726D01*
X117126Y109619D01*
X117664Y109726D01*
X118110Y110024D01*
X118557Y109726D01*
X119095Y109619D01*
X119632Y109726D01*
X120079Y110024D01*
X120525Y109726D01*
X121063Y109619D01*
X121601Y109726D01*
X122047Y110024D01*
X122494Y109726D01*
X123031Y109619D01*
X123569Y109726D01*
X124016Y110024D01*
X124462Y109726D01*
X125000Y109619D01*
X125538Y109726D01*
X125984Y110024D01*
X126431Y109726D01*
X126969Y109619D01*
X127506Y109726D01*
X127953Y110024D01*
X128399Y109726D01*
X128937Y109619D01*
X129475Y109726D01*
X129921Y110024D01*
X130368Y109726D01*
X130905Y109619D01*
X131139Y109665D01*
X131145Y109662D01*
X131412Y109358D01*
X135524D01*
Y110480D01*
X133071D01*
X132697Y110406D01*
X132267Y110784D01*
X132264Y110791D01*
X132310Y111024D01*
Y112664D01*
X134449D01*
X134951Y112764D01*
X135377Y113048D01*
X139914Y117585D01*
X143785D01*
X143856Y117478D01*
X144508Y117043D01*
X145276Y116891D01*
X146044Y117043D01*
X146695Y117478D01*
X147006Y117945D01*
X147506Y117793D01*
Y99909D01*
X147006Y99702D01*
X146799Y99909D01*
X146373Y100194D01*
X145871Y100294D01*
X140728D01*
X140343Y100794D01*
X140381Y100984D01*
X140274Y101522D01*
X139976Y101969D01*
X140274Y102415D01*
X140381Y102953D01*
X140350Y103109D01*
X140751Y103609D01*
X141365D01*
X141453Y103169D01*
X141888Y102518D01*
X142539Y102083D01*
X143307Y101930D01*
X144075Y102083D01*
X144726Y102518D01*
X145161Y103169D01*
X145314Y103937D01*
X145161Y104705D01*
X144726Y105356D01*
X144075Y105791D01*
X143307Y105944D01*
X142953Y105874D01*
X142563Y106134D01*
X142061Y106234D01*
X140751D01*
X140350Y106734D01*
X140381Y106890D01*
X140274Y107427D01*
X140096Y107694D01*
X140123Y107712D01*
X140475Y108238D01*
X140499Y108358D01*
X136024D01*
X131291D01*
X131087Y108133D01*
X130762Y108068D01*
X130336Y107783D01*
X126237Y103684D01*
X125953Y103258D01*
X125853Y102756D01*
Y99916D01*
X125746Y99844D01*
X125675Y99738D01*
X123622D01*
X123120Y99638D01*
X122694Y99353D01*
X114811Y91470D01*
X113239D01*
X112452Y92257D01*
X112616Y92800D01*
X113069Y92890D01*
X113720Y93325D01*
X114155Y93976D01*
X114308Y94744D01*
X114170Y95439D01*
X114201Y95645D01*
X114314Y95918D01*
X114427Y96005D01*
X115067Y96433D01*
X115502Y97084D01*
X115655Y97852D01*
X115502Y98620D01*
X115157Y99137D01*
X114924Y99582D01*
X115359Y100233D01*
X115512Y101002D01*
X115359Y101770D01*
X114924Y102421D01*
X114273Y102856D01*
X113505Y103009D01*
X112737Y102856D01*
X112086Y102421D01*
X111980Y102262D01*
X108838D01*
X108454Y102762D01*
X108492Y102953D01*
X108385Y103490D01*
X108086Y103937D01*
X108385Y104384D01*
X108492Y104921D01*
X108385Y105459D01*
X108086Y105905D01*
X108385Y106352D01*
X108492Y106890D01*
X108385Y107427D01*
X108086Y107874D01*
X108385Y108321D01*
X108492Y108858D01*
X108445Y109091D01*
X108448Y109098D01*
X108752Y109365D01*
Y113476D01*
X107630D01*
Y111024D01*
X107705Y110650D01*
X107326Y110220D01*
X107320Y110217D01*
X107087Y110263D01*
X101181D01*
X100717Y110171D01*
X96653D01*
X96151Y110071D01*
X95725Y109786D01*
X90410Y104472D01*
X90126Y104046D01*
X90026Y103543D01*
Y88368D01*
X89526Y88033D01*
X89454Y87927D01*
X87496D01*
Y90402D01*
X82399D01*
X82060Y90402D01*
X81804Y90853D01*
X82439Y91488D01*
X85921D01*
Y99063D01*
X85921D01*
X85969Y99543D01*
X86134D01*
Y103043D01*
X80134D01*
Y100329D01*
X79672Y100137D01*
X77921Y101888D01*
Y107331D01*
X77921D01*
Y107630D01*
X77921D01*
Y115205D01*
X77921D01*
Y115504D01*
X77921D01*
Y123079D01*
X77921D01*
Y123378D01*
X77921D01*
Y130953D01*
X77921D01*
Y131252D01*
X77921D01*
Y138626D01*
X77921Y139126D01*
X77921Y139327D01*
Y146701D01*
X72347D01*
Y144318D01*
X71842D01*
X71484Y144676D01*
Y151673D01*
X73524D01*
Y158563D01*
X66634D01*
Y151673D01*
X68674D01*
Y144095D01*
X68781Y143557D01*
X69085Y143101D01*
X70266Y141920D01*
X70722Y141615D01*
X71260Y141508D01*
X72347D01*
Y139327D01*
X72347Y138827D01*
X72347Y138626D01*
Y136352D01*
X65748D01*
X65246Y136252D01*
X64820Y135968D01*
X57670Y128818D01*
X57386Y128392D01*
X57286Y127890D01*
Y125835D01*
X55811D01*
Y122966D01*
X53145D01*
X52884Y123357D01*
X52103Y123879D01*
X51181Y124062D01*
X50259Y123879D01*
X49478Y123357D01*
X48956Y122575D01*
X48773Y121653D01*
X48956Y120732D01*
X49478Y119950D01*
X50259Y119428D01*
X51181Y119245D01*
X52103Y119428D01*
X52884Y119950D01*
X53145Y120341D01*
X55811D01*
Y118260D01*
X55811D01*
Y117961D01*
X55811D01*
Y110386D01*
X61386D01*
Y117961D01*
X61386D01*
Y118260D01*
X61386D01*
Y125835D01*
X59911D01*
Y127346D01*
X66292Y133727D01*
X72347D01*
Y131252D01*
X72346D01*
Y130953D01*
X72347D01*
Y123378D01*
X72346D01*
Y123079D01*
X72347D01*
Y115504D01*
X72346D01*
Y115205D01*
X72347D01*
Y107630D01*
X72346D01*
Y107331D01*
X72347D01*
Y100296D01*
X71846Y100089D01*
X70532Y101403D01*
X70770Y101976D01*
X70898Y102953D01*
X70770Y103929D01*
X70393Y104839D01*
X69793Y105620D01*
X69012Y106220D01*
X68102Y106597D01*
X67126Y106725D01*
X66150Y106597D01*
X65240Y106220D01*
X64459Y105620D01*
X63859Y104839D01*
X63482Y103929D01*
X63354Y102953D01*
X63482Y101976D01*
X63859Y101067D01*
X64459Y100285D01*
X65240Y99686D01*
X66150Y99309D01*
X67126Y99180D01*
X68102Y99309D01*
X68676Y99546D01*
X71375Y96847D01*
X71801Y96563D01*
X72303Y96463D01*
X72347D01*
Y91488D01*
X77921D01*
Y97522D01*
X78383Y97713D01*
X79249Y96847D01*
X79675Y96563D01*
X80177Y96463D01*
X80347D01*
Y93902D01*
X80321Y93776D01*
Y93083D01*
X77640Y90402D01*
X73921D01*
Y82827D01*
X79496D01*
Y88545D01*
X81470Y90519D01*
X81921Y90263D01*
X81921Y89959D01*
Y82827D01*
X87496D01*
Y85302D01*
X89454D01*
X89526Y85195D01*
X90177Y84760D01*
X90417Y84712D01*
X90581Y84170D01*
X84496Y78084D01*
X70782D01*
X70711Y78191D01*
X70059Y78626D01*
X69291Y78779D01*
X68523Y78626D01*
X67872Y78191D01*
X67437Y77540D01*
X67424Y77472D01*
X67291Y77274D01*
X67191Y76772D01*
X67291Y76269D01*
X67424Y76071D01*
X67437Y76004D01*
X67872Y75352D01*
X68523Y74917D01*
X69291Y74765D01*
X70059Y74917D01*
X70711Y75352D01*
X70782Y75459D01*
X85039D01*
X85542Y75559D01*
X85967Y75844D01*
X95076Y84952D01*
X95538Y84760D01*
Y71016D01*
X92763Y68242D01*
X43063D01*
X39108Y72197D01*
Y78347D01*
X39008Y78849D01*
X38723Y79275D01*
X36746Y81252D01*
Y87795D01*
X36646Y88298D01*
X36361Y88723D01*
X32980Y92105D01*
X33171Y92567D01*
X33300Y93543D01*
X33171Y94520D01*
X32795Y95429D01*
X32195Y96211D01*
X31414Y96810D01*
X30504Y97187D01*
X29528Y97316D01*
X28551Y97187D01*
X27641Y96810D01*
X26860Y96211D01*
X26261Y95429D01*
X25884Y94520D01*
X25755Y93543D01*
X25884Y92567D01*
X26261Y91657D01*
X26860Y90876D01*
X27641Y90276D01*
X28551Y89899D01*
X29528Y89771D01*
X30504Y89899D01*
X31189Y90183D01*
X34120Y87252D01*
Y81460D01*
X33658Y81269D01*
X32934Y81993D01*
X33171Y82567D01*
X33300Y83543D01*
X33171Y84520D01*
X32795Y85430D01*
X32195Y86211D01*
X31414Y86810D01*
X30504Y87187D01*
X29528Y87316D01*
X28551Y87187D01*
X27641Y86810D01*
X26860Y86211D01*
X26261Y85430D01*
X25884Y84520D01*
X25755Y83543D01*
X25884Y82567D01*
X26261Y81657D01*
X26860Y80876D01*
X27641Y80276D01*
X28551Y79899D01*
X29528Y79771D01*
X30504Y79899D01*
X31078Y80137D01*
X34514Y76700D01*
Y71120D01*
X34014Y70913D01*
X32934Y71993D01*
X33171Y72567D01*
X33300Y73543D01*
X33171Y74520D01*
X32795Y75429D01*
X32195Y76211D01*
X31414Y76810D01*
X30504Y77187D01*
X29528Y77316D01*
X28551Y77187D01*
X27641Y76810D01*
X26860Y76211D01*
X26261Y75429D01*
X25884Y74520D01*
X25755Y73543D01*
X25884Y72567D01*
X26261Y71657D01*
X26860Y70876D01*
X27641Y70276D01*
X28551Y69899D01*
X29528Y69771D01*
X30504Y69899D01*
X31078Y70137D01*
X39166Y62049D01*
X38959Y61549D01*
X31122D01*
X22966Y69704D01*
Y99456D01*
X25548Y102038D01*
X26103D01*
X26261Y101657D01*
X26860Y100876D01*
X27641Y100276D01*
X28551Y99899D01*
X29528Y99771D01*
X30504Y99899D01*
X31414Y100276D01*
X32195Y100876D01*
X32795Y101657D01*
X33171Y102567D01*
X33300Y103543D01*
X33171Y104520D01*
X32795Y105429D01*
X32195Y106211D01*
X31414Y106810D01*
X30504Y107187D01*
X29528Y107316D01*
X28551Y107187D01*
X27641Y106810D01*
X26860Y106211D01*
X26261Y105429D01*
X25943Y104663D01*
X25004D01*
X24501Y104563D01*
X24076Y104279D01*
X20725Y100928D01*
X20441Y100502D01*
X20341Y100000D01*
Y69161D01*
X20441Y68658D01*
X20725Y68233D01*
X29650Y59308D01*
X30076Y59023D01*
X30578Y58924D01*
X96518D01*
X96725Y58424D01*
X83315Y45013D01*
X75197D01*
X74695Y44914D01*
X74269Y44629D01*
X58914Y29275D01*
X58630Y28849D01*
X58530Y28346D01*
Y16535D01*
X58630Y16033D01*
X58914Y15607D01*
X64820Y9702D01*
X65246Y9417D01*
X65748Y9317D01*
X169291D01*
X169794Y9417D01*
X170220Y9702D01*
X182030Y21513D01*
X182315Y21939D01*
X182415Y22441D01*
Y148031D01*
X182315Y148534D01*
X182030Y148960D01*
X175211Y155779D01*
X176927Y157496D01*
X171638Y162785D01*
D02*
G37*
G36*
X132527Y81587D02*
X131405D01*
Y77612D01*
X131526Y77636D01*
X132052Y77987D01*
X132404Y78513D01*
X132527Y79134D01*
Y81587D01*
D02*
G37*
G36*
X171063Y82165D02*
X163583D01*
Y74685D01*
X171063D01*
Y82165D01*
D02*
G37*
G36*
X137795Y69724D02*
X137027Y69571D01*
X136376Y69136D01*
X135941Y68485D01*
X135788Y67716D01*
X135941Y66948D01*
X136376Y66297D01*
X137027Y65862D01*
X137795Y65710D01*
X138563Y65862D01*
X139215Y66297D01*
X139650Y66948D01*
X139802Y67716D01*
X139650Y68485D01*
X139215Y69136D01*
X138563Y69571D01*
X137795Y69724D01*
D02*
G37*
G36*
X157874Y71176D02*
X156846Y71040D01*
X155888Y70644D01*
X155066Y70013D01*
X154435Y69190D01*
X154038Y68233D01*
X153903Y67205D01*
X154038Y66177D01*
X154435Y65219D01*
X155066Y64397D01*
X155888Y63766D01*
X156846Y63369D01*
X157874Y63234D01*
X158902Y63369D01*
X159860Y63766D01*
X160682Y64397D01*
X161313Y65219D01*
X161710Y66177D01*
X161845Y67205D01*
X161710Y68233D01*
X161313Y69190D01*
X160682Y70013D01*
X159860Y70644D01*
X158902Y71040D01*
X157874Y71176D01*
D02*
G37*
G36*
X39355Y176927D02*
X34065Y171638D01*
X39355Y166349D01*
X41071Y168065D01*
X44978Y164158D01*
X15607Y134786D01*
X15323Y134361D01*
X15223Y133858D01*
Y58661D01*
X15323Y58159D01*
X15607Y57733D01*
X16522Y56819D01*
X16497Y56693D01*
X16650Y55925D01*
X17085Y55274D01*
X17736Y54839D01*
X18504Y54686D01*
X19272Y54839D01*
X19923Y55274D01*
X20358Y55925D01*
X20511Y56693D01*
X20358Y57461D01*
X19923Y58112D01*
X19272Y58547D01*
X18504Y58700D01*
X18378Y58675D01*
X17848Y59205D01*
Y133315D01*
X47349Y162815D01*
X47633Y163241D01*
X47733Y163743D01*
Y164572D01*
X47633Y165074D01*
X47349Y165500D01*
X42927Y169922D01*
X44644Y171638D01*
X39355Y176927D01*
D02*
G37*
G36*
X157874Y61176D02*
X156846Y61040D01*
X155888Y60644D01*
X155066Y60013D01*
X154435Y59190D01*
X154038Y58232D01*
X153903Y57205D01*
X154038Y56177D01*
X154435Y55219D01*
X155066Y54397D01*
X155888Y53766D01*
X156846Y53369D01*
X157874Y53234D01*
X158902Y53369D01*
X159860Y53766D01*
X160682Y54397D01*
X161313Y55219D01*
X161710Y56177D01*
X161845Y57205D01*
X161710Y58232D01*
X161313Y59190D01*
X160682Y60013D01*
X159860Y60644D01*
X158902Y61040D01*
X157874Y61176D01*
D02*
G37*
G36*
X131689Y53220D02*
X127406D01*
Y51933D01*
Y51661D01*
X131689D01*
Y51933D01*
Y53220D01*
D02*
G37*
G36*
X129047Y50661D02*
X127406D01*
Y49374D01*
X129047D01*
Y50661D01*
D02*
G37*
G36*
X131689D02*
X130047D01*
Y49374D01*
X130595D01*
Y48827D01*
X131882D01*
Y50468D01*
X131689D01*
Y50661D01*
D02*
G37*
G36*
X131882Y47827D02*
X130595D01*
Y46185D01*
X131882D01*
Y47827D01*
D02*
G37*
G36*
X171638Y43127D02*
X170662Y42998D01*
X169752Y42621D01*
X168971Y42022D01*
X168371Y41241D01*
X167994Y40331D01*
X167866Y39355D01*
X167994Y38378D01*
X168371Y37468D01*
X168971Y36687D01*
X169752Y36088D01*
X170662Y35711D01*
X171638Y35582D01*
X172614Y35711D01*
X173524Y36088D01*
X174305Y36687D01*
X174905Y37468D01*
X175282Y38378D01*
X175410Y39355D01*
X175282Y40331D01*
X174905Y41241D01*
X174305Y42022D01*
X173524Y42621D01*
X172614Y42998D01*
X171638Y43127D01*
D02*
G37*
G36*
X25212Y44644D02*
X19923Y39355D01*
X25212Y34065D01*
X30502Y39355D01*
X25212Y44644D01*
D02*
G37*
G36*
X164567Y36056D02*
X163591Y35927D01*
X162681Y35550D01*
X161899Y34951D01*
X161300Y34170D01*
X160923Y33260D01*
X160794Y32283D01*
X160923Y31307D01*
X161300Y30397D01*
X161899Y29616D01*
X162681Y29016D01*
X163591Y28640D01*
X164567Y28511D01*
X165543Y28640D01*
X166453Y29016D01*
X167234Y29616D01*
X167834Y30397D01*
X168211Y31307D01*
X168339Y32283D01*
X168211Y33260D01*
X167834Y34170D01*
X167234Y34951D01*
X166453Y35550D01*
X165543Y35927D01*
X164567Y36056D01*
D02*
G37*
G36*
X32283D02*
X31307Y35927D01*
X30397Y35550D01*
X29616Y34951D01*
X29016Y34170D01*
X28640Y33260D01*
X28511Y32283D01*
X28640Y31307D01*
X29016Y30397D01*
X29616Y29616D01*
X30397Y29016D01*
X31307Y28640D01*
X32283Y28511D01*
X33260Y28640D01*
X34170Y29016D01*
X34951Y29616D01*
X35550Y30397D01*
X35927Y31307D01*
X36056Y32283D01*
X35927Y33260D01*
X35550Y34170D01*
X34951Y34951D01*
X34170Y35550D01*
X33260Y35927D01*
X32283Y36056D01*
D02*
G37*
G36*
X88386Y33268D02*
X80905D01*
Y25787D01*
X88386D01*
Y33268D01*
D02*
G37*
G36*
X114646Y33300D02*
X113669Y33171D01*
X112759Y32795D01*
X111978Y32195D01*
X111379Y31414D01*
X111002Y30504D01*
X110873Y29528D01*
X111002Y28551D01*
X111379Y27641D01*
X111978Y26860D01*
X112759Y26261D01*
X113669Y25884D01*
X114646Y25755D01*
X115622Y25884D01*
X116532Y26261D01*
X117313Y26860D01*
X117913Y27641D01*
X118290Y28551D01*
X118418Y29528D01*
X118290Y30504D01*
X117913Y31414D01*
X117313Y32195D01*
X116532Y32795D01*
X115622Y33171D01*
X114646Y33300D01*
D02*
G37*
G36*
X39355Y28985D02*
X38378Y28856D01*
X37468Y28479D01*
X36687Y27880D01*
X36088Y27099D01*
X35711Y26189D01*
X35582Y25212D01*
X35711Y24236D01*
X36088Y23326D01*
X36687Y22545D01*
X37468Y21945D01*
X38378Y21568D01*
X39355Y21440D01*
X40331Y21568D01*
X41241Y21945D01*
X42022Y22545D01*
X42621Y23326D01*
X42998Y24236D01*
X43127Y25212D01*
X42998Y26189D01*
X42621Y27099D01*
X42022Y27880D01*
X41241Y28479D01*
X40331Y28856D01*
X39355Y28985D01*
D02*
G37*
%LPD*%
G36*
X138736Y120022D02*
X138442Y119826D01*
X133905Y115289D01*
X132310D01*
Y116929D01*
X132203Y117467D01*
X131899Y117923D01*
X131443Y118227D01*
X130905Y118334D01*
X130368Y118227D01*
X129921Y117929D01*
X129475Y118227D01*
X128937Y118334D01*
X128399Y118227D01*
X127953Y117929D01*
X127506Y118227D01*
X126969Y118334D01*
X126431Y118227D01*
X125984Y117929D01*
X125538Y118227D01*
X125000Y118334D01*
X124462Y118227D01*
X124016Y117929D01*
X123569Y118227D01*
X123222Y118296D01*
X123025Y118794D01*
X123025Y118806D01*
X124741Y120522D01*
X138584D01*
X138736Y120022D01*
D02*
G37*
G36*
X96064Y105705D02*
X96177Y105137D01*
X96612Y104486D01*
X96766Y104384D01*
Y103884D01*
X96612Y103781D01*
X96177Y103130D01*
X96024Y102362D01*
X96177Y101594D01*
X96612Y100943D01*
X97263Y100508D01*
X98032Y100355D01*
X98800Y100508D01*
X99295Y100839D01*
X99767Y100706D01*
X99843Y100649D01*
X99883Y100447D01*
X100181Y100000D01*
X99883Y99553D01*
X99776Y99016D01*
X99883Y98478D01*
X100181Y98032D01*
X99883Y97585D01*
X99776Y97047D01*
X99781Y97022D01*
X99447Y96599D01*
X98980Y96578D01*
X97651Y97906D01*
X97676Y98032D01*
X97524Y98800D01*
X97088Y99451D01*
X96437Y99886D01*
X95669Y100039D01*
X94901Y99886D01*
X94250Y99451D01*
X93815Y98800D01*
X93662Y98032D01*
X93815Y97263D01*
X94250Y96612D01*
X94901Y96177D01*
X95669Y96024D01*
X95795Y96049D01*
X96452Y95392D01*
X96257Y94881D01*
X95689Y94768D01*
X95038Y94333D01*
X94602Y93682D01*
X94450Y92913D01*
X94602Y92145D01*
X95038Y91494D01*
X95689Y91059D01*
X96457Y90906D01*
X96649Y90944D01*
X96895Y90484D01*
X93389Y86978D01*
X92847Y87143D01*
X92799Y87382D01*
X92651Y87604D01*
Y103000D01*
X95552Y105901D01*
X96064Y105705D01*
D02*
G37*
G36*
X125746Y97006D02*
X125853Y96935D01*
Y93307D01*
X125953Y92805D01*
X126237Y92379D01*
X127624Y90992D01*
Y86814D01*
X127124Y86413D01*
X126969Y86444D01*
X126431Y86337D01*
X125984Y86039D01*
X125538Y86337D01*
X125000Y86444D01*
X124462Y86337D01*
X124016Y86039D01*
X123569Y86337D01*
X123031Y86444D01*
X122494Y86337D01*
X122047Y86039D01*
X121601Y86337D01*
X121063Y86444D01*
X120525Y86337D01*
X120079Y86039D01*
X119632Y86337D01*
X119095Y86444D01*
X118557Y86337D01*
X118110Y86039D01*
X117664Y86337D01*
X117126Y86444D01*
X116588Y86337D01*
X116142Y86039D01*
X115695Y86337D01*
X115157Y86444D01*
X114620Y86337D01*
X114173Y86039D01*
X113727Y86337D01*
X113189Y86444D01*
X112651Y86337D01*
X112205Y86039D01*
X111758Y86337D01*
X111221Y86444D01*
X110683Y86337D01*
X110236Y86039D01*
X109790Y86337D01*
X109252Y86444D01*
X108774Y86349D01*
X108566Y86519D01*
X108396Y86726D01*
X108492Y87205D01*
X108385Y87742D01*
X108086Y88189D01*
X108385Y88636D01*
X108492Y89173D01*
X108385Y89711D01*
X108086Y90158D01*
X108385Y90604D01*
X108492Y91142D01*
X108385Y91679D01*
X108374Y91695D01*
X108445Y91844D01*
X109047Y91949D01*
X111767Y89229D01*
X112193Y88945D01*
X112695Y88845D01*
X115354D01*
X115857Y88945D01*
X116282Y89229D01*
X124166Y97113D01*
X125675D01*
X125746Y97006D01*
D02*
G37*
G36*
X143176Y86536D02*
X137798Y81159D01*
X137336Y81350D01*
Y85800D01*
X138976D01*
X139514Y85907D01*
X139970Y86211D01*
X140274Y86667D01*
X140381Y87205D01*
X140274Y87742D01*
X139976Y88189D01*
X140274Y88636D01*
X140381Y89173D01*
X140274Y89711D01*
X139976Y90158D01*
X140274Y90604D01*
X140381Y91142D01*
X140274Y91679D01*
X139976Y92126D01*
X140274Y92573D01*
X140381Y93110D01*
X140274Y93648D01*
X139976Y94095D01*
X140274Y94541D01*
X140381Y95079D01*
X140357Y95200D01*
X140768Y95700D01*
X143176D01*
Y86536D01*
D02*
G37*
G36*
X99940Y86581D02*
X100188Y86211D01*
X100644Y85907D01*
X101181Y85800D01*
X102821D01*
Y75150D01*
X98625Y70954D01*
X98163Y71145D01*
Y85511D01*
X99397Y86745D01*
X99940Y86581D01*
D02*
G37*
D18*
X155905Y129842D02*
Y143425D01*
Y129842D02*
X167323Y118425D01*
X155905Y143425D02*
X156181Y143701D01*
X90753Y86614D02*
X91339Y87200D01*
X84709Y86614D02*
X90753D01*
X132520Y61811D02*
X142903D01*
X129547Y61043D02*
X130177Y61673D01*
X129547Y58839D02*
Y61043D01*
X130177Y61673D02*
X132382D01*
X142903Y61811D02*
Y73219D01*
Y58848D02*
Y61811D01*
X132382Y61673D02*
X132520Y61811D01*
X142894Y58839D02*
X142903Y58848D01*
Y73219D02*
X142913Y73228D01*
X104331Y29842D02*
Y41732D01*
X139598Y77000D02*
Y78575D01*
X104331Y41732D02*
X139598Y77000D01*
X94646Y34803D02*
X137811Y77969D01*
Y79315D01*
X94646Y29528D02*
Y34803D01*
X136024Y78937D02*
Y87205D01*
X125591Y72835D02*
X129921D01*
X136024Y78937D01*
X137811Y79315D02*
X144488Y85992D01*
Y96427D01*
X139598Y78575D02*
X146457Y85433D01*
Y98395D01*
X72303Y97776D02*
X73634D01*
X67126Y102953D02*
X67126D01*
X72303Y97776D01*
X75134Y95276D02*
Y96276D01*
X73634Y97776D02*
X75134Y96276D01*
X124803Y140157D02*
Y147800D01*
X99606Y123390D02*
X108036D01*
X124803Y140157D01*
X135012Y147610D02*
X136425D01*
X102362Y120866D02*
X108268D01*
X136425Y147610D02*
X136614Y147800D01*
X108268Y120866D02*
X135012Y147610D01*
X112695Y90158D02*
X115354D01*
X123622Y98425D02*
X127165D01*
X115354Y90158D02*
X123622Y98425D01*
X127165Y102756D02*
X131265Y106855D01*
X127165Y98425D02*
Y102756D01*
X131265Y106855D02*
X135989D01*
X127165Y93307D02*
Y98425D01*
X128937Y82087D02*
Y91536D01*
X127165Y93307D02*
X128937Y91536D01*
X107809Y95044D02*
X112695Y90158D01*
X104134Y95079D02*
X104168Y95044D01*
X107809D01*
X112598Y119685D02*
X112992D01*
X111255Y118342D02*
X112598Y119685D01*
X111221Y113976D02*
X111255Y114011D01*
Y118342D01*
X98622Y95079D02*
X104134D01*
X95669Y98032D02*
X98622Y95079D01*
X111221Y113976D02*
X111255Y113942D01*
X51181Y121653D02*
X57417D01*
X57811Y121260D01*
X58598Y122047D01*
X80177Y97776D02*
X81634D01*
X76910Y101043D02*
X80177Y97776D01*
X76634Y101043D02*
X76910D01*
X75134Y102543D02*
X76634Y101043D01*
X75134Y102543D02*
Y111417D01*
X81634Y97776D02*
X83134Y96276D01*
Y95276D02*
Y96276D01*
X65748Y135039D02*
X75134D01*
X58598Y127890D02*
X65748Y135039D01*
X58598Y122047D02*
Y127890D01*
Y114173D02*
Y122047D01*
X75134Y127165D02*
Y135039D01*
Y119291D02*
Y127165D01*
Y111417D02*
Y119291D01*
X76709Y86614D02*
Y87614D01*
X81634Y92539D01*
Y93776D01*
X83134Y95276D01*
X135989Y106855D02*
X136024Y106890D01*
X39355Y171638D02*
X46421Y164572D01*
X16535Y58661D02*
Y133858D01*
X46421Y163743D02*
Y164572D01*
X16535Y133858D02*
X46421Y163743D01*
X29685Y93543D02*
X35433Y87795D01*
Y80709D02*
X37795Y78347D01*
X35433Y80709D02*
Y87795D01*
X171638Y157496D02*
X181102Y148031D01*
X169291Y10630D02*
X181102Y22441D01*
Y148031D01*
X145669Y13386D02*
X157496Y25212D01*
X61811Y18110D02*
X66535Y13386D01*
X145669D01*
X59842Y16535D02*
Y28346D01*
X65748Y10630D02*
X169291D01*
X59842Y16535D02*
X65748Y10630D01*
X61811Y18110D02*
Y22047D01*
X59842Y28346D02*
X75197Y43701D01*
X96850Y70472D02*
Y86055D01*
X68504Y76772D02*
X85039D01*
X99410Y91142D01*
X104134D01*
X104099Y89139D02*
X104134Y89173D01*
X99934Y89139D02*
X104099D01*
X96850Y86055D02*
X99934Y89139D01*
X96457Y92913D02*
X96619Y93076D01*
X91339Y87200D02*
Y103543D01*
X96619Y93076D02*
X104099D01*
X37795Y71653D02*
Y78347D01*
Y71653D02*
X42520Y66929D01*
X93307D01*
X29528Y83543D02*
X35827Y77244D01*
Y70472D02*
Y77244D01*
Y70472D02*
X41732Y64567D01*
X93307Y66929D02*
X96850Y70472D01*
X104134Y74606D02*
Y87205D01*
X94095Y64567D02*
X104134Y74606D01*
X41732Y64567D02*
X94095D01*
X94882Y62598D02*
X109252Y76968D01*
X29528Y73543D02*
X40472Y62598D01*
X94882D01*
X21654Y69161D02*
X30578Y60236D01*
X96850D01*
X113189Y76575D01*
X29528Y93543D02*
X29685D01*
X117323Y122573D02*
Y122835D01*
X119129Y119523D02*
X123228Y123622D01*
X119129Y114011D02*
Y119523D01*
X123228Y123622D02*
X147769D01*
X117126Y122376D02*
X117323Y122573D01*
X117126Y113976D02*
Y122376D01*
X121098Y118735D02*
X124197Y121835D01*
X121098Y114011D02*
Y118735D01*
X124803Y56299D02*
X129528D01*
X151575Y80315D02*
Y119816D01*
X147769Y123622D02*
X151575Y119816D01*
X136058Y98981D02*
X145871D01*
X146457Y98395D01*
X99016Y104921D02*
X104134D01*
X98032Y105905D02*
X99016Y104921D01*
X111991Y97852D02*
X113647D01*
X110736Y99106D02*
X111991Y97852D01*
X146063Y80053D02*
X147031Y79084D01*
X146063Y80053D02*
Y80315D01*
X148819Y43727D02*
Y119995D01*
X147399Y42307D02*
X148819Y43727D01*
X146979Y121835D02*
X148819Y119995D01*
X137345Y42307D02*
X147399D01*
X124197Y121835D02*
X146979D01*
X147031Y44680D02*
Y79084D01*
X146446Y44094D02*
X147031Y44680D01*
X138086Y44094D02*
X146446D01*
X137500Y44680D02*
X138086Y44094D01*
X137500Y44680D02*
Y48327D01*
X134941Y44712D02*
X137345Y42307D01*
X134941Y44712D02*
Y48327D01*
X104134Y106890D02*
X104168Y106855D01*
X16535Y58661D02*
X18504Y56693D01*
X61811Y22047D02*
Y26772D01*
X76378Y41339D01*
X113189Y76575D02*
Y82087D01*
X98884Y102953D02*
X104134D01*
X98294Y102362D02*
X98884Y102953D01*
X98032Y102362D02*
X98294D01*
X76378Y41339D02*
X84024D01*
X75197Y43701D02*
X83858D01*
X115157Y75000D01*
X84024Y41339D02*
X117126Y74441D01*
X67716Y27953D02*
X78740Y38976D01*
X84646D02*
X119095Y73425D01*
X78740Y38976D02*
X84646D01*
X67716Y27953D02*
X67716D01*
X74441Y31134D02*
X79921Y36614D01*
X74441Y31071D02*
Y31134D01*
X79921Y36614D02*
X85039D01*
X157496Y25212D02*
X157496D01*
X121063Y72638D02*
Y82087D01*
X85039Y36614D02*
X121063Y72638D01*
X119095Y73425D02*
Y82087D01*
X117126Y74441D02*
Y82087D01*
X115157Y75000D02*
Y82087D01*
X130815Y85179D02*
X130905Y85088D01*
X104134Y97047D02*
X109998D01*
X112301Y94744D01*
X107226Y99106D02*
X110736D01*
X139370Y118898D02*
X145276D01*
X134449Y113976D02*
X139370Y118898D01*
X136024Y104921D02*
X142061D01*
X143045Y103937D01*
X143307D01*
X130905Y113976D02*
X134449D01*
X109252D02*
X109287Y113942D01*
X143902Y97013D02*
X144488Y96427D01*
X136058Y97013D02*
X143902D01*
X136024Y97047D02*
X136058Y97013D01*
X104331Y29842D02*
X104646Y29528D01*
X136024Y99016D02*
X136058Y98981D01*
X129528Y56299D02*
X129547Y56279D01*
X104168Y100950D02*
X113453D01*
X104134Y100984D02*
X104168Y100950D01*
X113453D02*
X113505Y101002D01*
X104134Y99016D02*
X107136D01*
X107226Y99106D01*
X109252Y76968D02*
Y82087D01*
X21654Y69161D02*
Y100000D01*
X25004Y103350D01*
X29335D01*
X29528Y103543D01*
X104099Y93076D02*
X104134Y93110D01*
X129528Y51142D02*
X129547Y51161D01*
Y53720D01*
X121063Y113976D02*
X121098Y114011D01*
X119095Y113976D02*
X119129Y114011D01*
X96653Y108858D02*
X104134D01*
X91339Y103543D02*
X96653Y108858D01*
D37*
X75134Y142913D02*
D03*
X83134D02*
D03*
Y95276D02*
D03*
X75134D02*
D03*
X84709Y86614D02*
D03*
X76709D02*
D03*
X83134Y119291D02*
D03*
X75134D02*
D03*
X58598Y122047D02*
D03*
X66598D02*
D03*
X83134Y103543D02*
D03*
X75134D02*
D03*
X83134Y111417D02*
D03*
X75134D02*
D03*
X83134Y127165D02*
D03*
X75134D02*
D03*
X83134Y135039D02*
D03*
X75134D02*
D03*
X58598Y114173D02*
D03*
X66598D02*
D03*
D38*
X132382Y48327D02*
D03*
X134941D02*
D03*
X137500D02*
D03*
X140059D02*
D03*
Y61673D02*
D03*
X137500D02*
D03*
X134941D02*
D03*
X132382D02*
D03*
D39*
X142894Y51161D02*
D03*
Y53720D02*
D03*
Y56279D02*
D03*
Y58839D02*
D03*
X129547D02*
D03*
Y56279D02*
D03*
Y53720D02*
D03*
Y51161D02*
D03*
D40*
X109252Y113976D02*
D03*
X111221D02*
D03*
X113189D02*
D03*
X115157D02*
D03*
X117126D02*
D03*
X119095D02*
D03*
X121063D02*
D03*
X123031D02*
D03*
X125000D02*
D03*
X126969D02*
D03*
X128937D02*
D03*
X130905D02*
D03*
Y82087D02*
D03*
X128937D02*
D03*
X126969D02*
D03*
X125000D02*
D03*
X123031D02*
D03*
X121063D02*
D03*
X119095D02*
D03*
X117126D02*
D03*
X115157D02*
D03*
X113189D02*
D03*
X111221D02*
D03*
X109252D02*
D03*
D41*
X136024Y108858D02*
D03*
Y106890D02*
D03*
Y104921D02*
D03*
Y102953D02*
D03*
Y100984D02*
D03*
Y99016D02*
D03*
Y97047D02*
D03*
Y95079D02*
D03*
Y93110D02*
D03*
Y91142D02*
D03*
Y89173D02*
D03*
Y87205D02*
D03*
X104134D02*
D03*
Y89173D02*
D03*
Y91142D02*
D03*
Y93110D02*
D03*
Y95079D02*
D03*
Y97047D02*
D03*
Y99016D02*
D03*
Y100984D02*
D03*
Y102953D02*
D03*
Y104921D02*
D03*
Y106890D02*
D03*
Y108858D02*
D03*
D42*
X122047Y153150D02*
X143253D01*
X146063Y150340D01*
Y143819D02*
Y150340D01*
Y143819D02*
X146181Y143701D01*
X111811Y142913D02*
X122047Y153150D01*
X83134Y142913D02*
X111811D01*
X71260D02*
X75134D01*
X70079Y144095D02*
X71260Y142913D01*
X70079Y144095D02*
Y155118D01*
X66598Y114173D02*
X67126Y113646D01*
D43*
X157874Y67205D02*
D03*
Y57205D02*
D03*
X146181Y143701D02*
D03*
X156181D02*
D03*
D44*
X41535Y102953D02*
D03*
Y85236D02*
D03*
X67126Y102953D02*
D03*
Y85236D02*
D03*
X29528Y73543D02*
D03*
Y83543D02*
D03*
Y93543D02*
D03*
Y103543D02*
D03*
Y113543D02*
D03*
X94646Y29528D02*
D03*
X104646D02*
D03*
X114646D02*
D03*
X167323Y88425D02*
D03*
Y98425D02*
D03*
Y108425D02*
D03*
Y118425D02*
D03*
X32283Y164567D02*
D03*
X25212Y157496D02*
D03*
X164567Y164567D02*
D03*
X157496Y171638D02*
D03*
X164567Y32283D02*
D03*
X171638Y39355D02*
D03*
X32283Y32283D02*
D03*
X39355Y25212D02*
D03*
D45*
X79528Y165945D02*
D03*
D46*
X98425Y176969D02*
D03*
Y154134D02*
D03*
D47*
X70079Y155118D02*
D03*
D48*
X50394Y155118D02*
D03*
D49*
X29528Y123543D02*
D03*
X167323Y78425D02*
D03*
D50*
X84646Y29528D02*
D03*
D51*
X136811Y170472D02*
D03*
X124606D02*
D03*
D52*
X39355Y171638D02*
D03*
X157496Y25212D02*
D03*
D53*
X171638Y157496D02*
D03*
X25212Y39355D02*
D03*
D54*
X108504Y133071D02*
D03*
D55*
X127717D02*
D03*
D56*
X90945Y86614D02*
D03*
X137795Y67716D02*
D03*
X142913Y73228D02*
D03*
X125591Y72835D02*
D03*
X64567Y95276D02*
D03*
X112992Y119685D02*
D03*
X95669Y98032D02*
D03*
X127165Y98425D02*
D03*
X157242Y113230D02*
D03*
X96457Y92913D02*
D03*
X69291Y76772D02*
D03*
X117323Y122835D02*
D03*
X124803Y56299D02*
D03*
X102362Y120866D02*
D03*
X98032Y105905D02*
D03*
X113647Y97852D02*
D03*
X146063Y80315D02*
D03*
X151575D02*
D03*
X136614Y147800D02*
D03*
X124803D02*
D03*
X99606Y123390D02*
D03*
X98032Y102362D02*
D03*
X74441Y31071D02*
D03*
X67716Y27953D02*
D03*
X18504Y56693D02*
D03*
X112301Y94744D02*
D03*
X145276Y118898D02*
D03*
X143307Y103937D02*
D03*
X113505Y101002D02*
D03*
D57*
X51181Y121653D02*
D03*
M02*
