G04*
G04 #@! TF.GenerationSoftware,Altium Limited,Altium Designer,20.0.10 (225)*
G04*
G04 Layer_Color=32768*
%FSLAX25Y25*%
%MOIN*%
G70*
G01*
G75*
%ADD10C,0.00787*%
%ADD15C,0.00197*%
%ADD17C,0.00600*%
%ADD74C,0.00394*%
D10*
X163219Y53705D02*
X164013Y54300D01*
X164740Y54974D01*
X165394Y55720D01*
X165967Y56530D01*
X166453Y57395D01*
X166847Y58305D01*
X167145Y59252D01*
X167343Y60224D01*
X167439Y61211D01*
X167432Y62203D01*
X167323Y63189D01*
X167112Y64158D01*
X166801Y65101D01*
X166395Y66006D01*
X165897Y66864D01*
X165313Y67666D01*
X164649Y68403D01*
X163912Y69067D01*
X163110Y69651D01*
X162252Y70150D01*
X161348Y70556D01*
X160405Y70867D01*
X159436Y71078D01*
X158450Y71188D01*
X157458Y71195D01*
X156471Y71099D01*
X155499Y70902D01*
X154552Y70605D01*
X153641Y70211D01*
X152777Y69725D01*
X151967Y69152D01*
X151220Y68499D01*
X150546Y67771D01*
X149950Y66978D01*
X149440Y66127D01*
X149021Y65228D01*
X148697Y64290D01*
X148472Y63324D01*
X148349Y62340D01*
X148328Y61348D01*
X148410Y60359D01*
X148594Y59384D01*
X148878Y58434D01*
X149258Y57518D01*
X149732Y56646D01*
X150294Y55828D01*
X150937Y55073D01*
X151655Y54388D01*
X152440Y53782D01*
X159681Y149046D02*
X159086Y149839D01*
X158412Y150567D01*
X157666Y151221D01*
X156856Y151794D01*
X155991Y152280D01*
X155081Y152674D01*
X154134Y152972D01*
X153162Y153170D01*
X152175Y153266D01*
X151183Y153259D01*
X150197Y153149D01*
X149227Y152938D01*
X148285Y152628D01*
X147380Y152222D01*
X146522Y151724D01*
X145720Y151140D01*
X144983Y150476D01*
X144319Y149739D01*
X143734Y148937D01*
X143236Y148079D01*
X142830Y147174D01*
X142519Y146232D01*
X142308Y145263D01*
X142198Y144277D01*
X142191Y143285D01*
X142286Y142297D01*
X142484Y141325D01*
X142781Y140379D01*
X143175Y139468D01*
X143660Y138603D01*
X144233Y137793D01*
X144887Y137047D01*
X145615Y136373D01*
X146408Y135777D01*
X147259Y135267D01*
X148158Y134848D01*
X149096Y134524D01*
X150062Y134299D01*
X151046Y134176D01*
X152038Y134155D01*
X153027Y134237D01*
X154001Y134421D01*
X154952Y134704D01*
X155868Y135085D01*
X156740Y135559D01*
X157558Y136120D01*
X158313Y136764D01*
X158997Y137482D01*
X159604Y138267D01*
X152445Y53705D02*
X163219D01*
X159681Y138272D02*
Y149046D01*
D15*
X54331Y92126D02*
Y96063D01*
X52362Y94095D02*
X56299D01*
X70866Y81102D02*
Y107087D01*
X37795D02*
X70866D01*
X37795Y81102D02*
Y107087D01*
Y81102D02*
X70866D01*
X96457Y179134D02*
X100394D01*
X98425Y177165D02*
Y181102D01*
X75197Y149803D02*
X116929D01*
X75197D02*
Y208465D01*
X116929D01*
Y149803D02*
Y208465D01*
X163425Y72047D02*
X180669D01*
X163425Y64961D02*
Y72047D01*
X180669Y64961D02*
Y72047D01*
X163425Y64961D02*
X180669D01*
X73622Y54370D02*
Y71614D01*
X80709D01*
X73622Y54370D02*
X80709D01*
Y71614D01*
X80315Y97677D02*
Y114921D01*
X73228Y97677D02*
X80315D01*
X73228Y114921D02*
X80315D01*
X73228Y97677D02*
Y114921D01*
X68110Y133504D02*
Y150748D01*
Y133504D02*
X75197D01*
X68110Y150748D02*
X75197D01*
Y133504D02*
Y150748D01*
X99606Y77559D02*
X140551D01*
X99606Y118504D02*
X140551D01*
Y77559D02*
Y118504D01*
X99606Y77559D02*
Y118504D01*
D17*
X155873Y52205D02*
X152874D01*
X153874D01*
X155873Y50205D01*
X154374Y51705D01*
X152874Y50205D01*
X160873Y62205D02*
X157874D01*
Y60205D01*
X160873Y59206D02*
X157874D01*
Y57706D01*
X158374Y57206D01*
X160373D01*
X160873Y57706D01*
Y59206D01*
X157874Y54207D02*
Y56207D01*
X159873Y54207D01*
X160373D01*
X160873Y54707D01*
Y55707D01*
X160373Y56207D01*
X161181Y141700D02*
Y138701D01*
Y139700D01*
X163180Y141700D01*
X161681Y140200D01*
X163180Y138701D01*
X151181Y146700D02*
Y143701D01*
X153180D01*
X154180Y146700D02*
Y143701D01*
X155680D01*
X156179Y144201D01*
Y146200D01*
X155680Y146700D01*
X154180D01*
X157179Y143701D02*
X158179D01*
X157679D01*
Y146700D01*
X157179Y146200D01*
D74*
X172047Y66535D02*
Y70472D01*
X170079Y68504D02*
X174016D01*
X73819Y74606D02*
Y82087D01*
X87598Y74606D02*
Y82087D01*
X73819Y74606D02*
X87598D01*
X73819Y82087D02*
X87598D01*
X78740Y78346D02*
X82677D01*
X80709Y76378D02*
Y80315D01*
X75197Y62992D02*
X79134D01*
X77165Y61024D02*
Y64961D01*
X74803Y106299D02*
X78740D01*
X76772Y104331D02*
Y108268D01*
X69685Y142126D02*
X73622D01*
X71653Y140157D02*
Y144095D01*
X120079Y96063D02*
Y100000D01*
X118110Y98032D02*
X122047D01*
M02*
