G04*
G04 #@! TF.GenerationSoftware,Altium Limited,Altium Designer,20.0.10 (225)*
G04*
G04 Layer_Color=16711935*
%FSLAX25Y25*%
%MOIN*%
G70*
G01*
G75*
%ADD75C,0.03937*%
D75*
X185039D02*
X186015Y40D01*
X186983Y161D01*
X187939Y361D01*
X188874Y640D01*
X189784Y995D01*
X190661Y1424D01*
X191499Y1923D01*
X192294Y2490D01*
X193039Y3121D01*
X193729Y3812D01*
X194360Y4557D01*
X194927Y5351D01*
X195427Y6190D01*
X195856Y7067D01*
X196210Y7976D01*
X196489Y8912D01*
X196689Y9867D01*
X196810Y10836D01*
X196850Y11811D01*
Y185039D02*
X196810Y186015D01*
X196689Y186983D01*
X196489Y187939D01*
X196210Y188874D01*
X195856Y189784D01*
X195427Y190661D01*
X194927Y191499D01*
X194360Y192294D01*
X193729Y193039D01*
X193039Y193729D01*
X192294Y194360D01*
X191499Y194927D01*
X190661Y195427D01*
X189784Y195856D01*
X188874Y196210D01*
X187939Y196489D01*
X186983Y196689D01*
X186015Y196810D01*
X185039Y196850D01*
X11811D02*
X10836Y196810D01*
X9867Y196689D01*
X8912Y196489D01*
X7976Y196210D01*
X7067Y195856D01*
X6190Y195427D01*
X5351Y194927D01*
X4557Y194360D01*
X3812Y193729D01*
X3121Y193039D01*
X2490Y192294D01*
X1923Y191499D01*
X1424Y190661D01*
X995Y189784D01*
X640Y188874D01*
X361Y187939D01*
X161Y186983D01*
X40Y186015D01*
X0Y185039D01*
Y11811D02*
X40Y10836D01*
X161Y9867D01*
X361Y8912D01*
X640Y7976D01*
X995Y7067D01*
X1424Y6190D01*
X1923Y5351D01*
X2490Y4557D01*
X3121Y3812D01*
X3812Y3121D01*
X4557Y2490D01*
X5351Y1923D01*
X6190Y1424D01*
X7067Y995D01*
X7976Y640D01*
X8912Y361D01*
X9867Y161D01*
X10836Y40D01*
X11811Y0D01*
Y-0D02*
X185039D01*
X196850Y11811D02*
Y185039D01*
X11811Y196850D02*
X185039D01*
X-0Y185039D02*
X-0Y11811D01*
M02*
