G04*
G04 #@! TF.GenerationSoftware,Altium Limited,Altium Designer,20.0.10 (225)*
G04*
G04 Layer_Color=255*
%FSLAX25Y25*%
%MOIN*%
G70*
G01*
G75*
%ADD37R,0.04000X0.06000*%
%ADD43C,0.06299*%
%ADD44C,0.05906*%
%ADD45R,0.07087X0.15748*%
%ADD46R,0.15748X0.07087*%
%ADD47R,0.05315X0.05315*%
%ADD48C,0.05315*%
%ADD49R,0.05906X0.05906*%
%ADD50R,0.05906X0.05906*%
%ADD51C,0.05118*%
%ADD52P,0.08352X4X270.0*%
%ADD53P,0.08352X4X180.0*%
%ADD54R,0.05039X0.05039*%
%ADD55C,0.05039*%
%ADD58R,0.12756X0.05158*%
%ADD59R,0.03661X0.05158*%
%ADD60R,0.06000X0.04000*%
%ADD61R,0.03583X0.04803*%
%ADD62R,0.04724X0.05512*%
%ADD63R,0.04803X0.03583*%
%ADD64R,0.08000X0.06000*%
D37*
X150063Y60630D02*
D03*
X142063D02*
D03*
X58724Y90945D02*
D03*
X50724D02*
D03*
X58724Y83071D02*
D03*
X50724D02*
D03*
X50787Y99213D02*
D03*
X58787D02*
D03*
X114504Y48425D02*
D03*
X122504D02*
D03*
X76709Y86614D02*
D03*
X84709D02*
D03*
D43*
X157874Y67205D02*
D03*
Y57205D02*
D03*
X146181Y143701D02*
D03*
X156181D02*
D03*
D44*
X41535Y102953D02*
D03*
Y85236D02*
D03*
X67126Y102953D02*
D03*
Y85236D02*
D03*
X29528Y73543D02*
D03*
Y83543D02*
D03*
Y93543D02*
D03*
Y103543D02*
D03*
Y113543D02*
D03*
X94646Y29528D02*
D03*
X104646D02*
D03*
X114646D02*
D03*
X167323Y88425D02*
D03*
Y98425D02*
D03*
Y108425D02*
D03*
Y118425D02*
D03*
X32283Y164567D02*
D03*
X25212Y157496D02*
D03*
X164567Y164567D02*
D03*
X157496Y171638D02*
D03*
X164567Y32283D02*
D03*
X171638Y39355D02*
D03*
X32283Y32283D02*
D03*
X39355Y25212D02*
D03*
D45*
X79528Y165945D02*
D03*
D46*
X98425Y176969D02*
D03*
Y154134D02*
D03*
D47*
X70079Y155118D02*
D03*
D48*
X50394Y155118D02*
D03*
D49*
X29528Y123543D02*
D03*
X167323Y78425D02*
D03*
D50*
X84646Y29528D02*
D03*
D51*
X136811Y170472D02*
D03*
X124606D02*
D03*
D52*
X39355Y171638D02*
D03*
X157496Y25212D02*
D03*
D53*
X171638Y157496D02*
D03*
X25212Y39355D02*
D03*
D54*
X108504Y133071D02*
D03*
D55*
X127717D02*
D03*
D58*
X53150Y45886D02*
D03*
Y110059D02*
D03*
D59*
X62165Y72224D02*
D03*
X53150D02*
D03*
X44134D02*
D03*
X62165Y136398D02*
D03*
X53150D02*
D03*
X44134D02*
D03*
D60*
X151575Y98488D02*
D03*
Y90488D02*
D03*
Y105055D02*
D03*
Y113055D02*
D03*
X103937Y61291D02*
D03*
Y69291D02*
D03*
X114961Y61354D02*
D03*
Y69354D02*
D03*
X124803Y154268D02*
D03*
Y162268D02*
D03*
X137008Y186677D02*
D03*
Y178677D02*
D03*
X124803Y186677D02*
D03*
Y178677D02*
D03*
X154331Y128284D02*
D03*
Y136284D02*
D03*
X145669Y128284D02*
D03*
Y136284D02*
D03*
X91339Y128284D02*
D03*
Y136284D02*
D03*
X83071Y128284D02*
D03*
Y136284D02*
D03*
X136614Y162268D02*
D03*
Y154268D02*
D03*
D61*
X178484Y68504D02*
D03*
X165610D02*
D03*
D62*
X77165Y78346D02*
D03*
X84252D02*
D03*
D63*
X77165Y56555D02*
D03*
Y69429D02*
D03*
X76772Y112736D02*
D03*
Y99862D02*
D03*
X71653Y148563D02*
D03*
Y135689D02*
D03*
D64*
X86614Y111799D02*
D03*
Y100799D02*
D03*
X89370Y57492D02*
D03*
Y68492D02*
D03*
M02*
