M48
;Layer_Color=9474304
;FILE_FORMAT=2:5
INCH,TZ
;TYPE=PLATED
T1F00S00C0.01181
T2F00S00C0.01968
T3F00S00C0.02677
T4F00S00C0.02756
T5F00S00C0.03150
T7F00S00C0.03937
T8F00S00C0.03950
%
T01
X18504Y56693
X69291Y76772
X64567Y95276
X95669Y98032
X96457Y92913
X98032Y102362
Y105905
X99606Y123390
X102362Y120866
X112992Y119685
X117323Y122835
X113505Y101002
X113647Y97852
X112301Y94744
X127165Y98425
X143307Y103937
X145276Y118898
X136614Y147800
X124803
X125591Y72835
X137795Y67716
X142913Y73228
X146063Y80315
X151575
X124803Y56299
X90945Y86614
X74441Y31071
X67716Y27953
X157242Y113230
T02
X51181Y121653
T03
X108504Y133071
X127717
T04
X124606Y170472
X136811
T05
X50394Y155118
X70079Y155118
T07
X41535Y85236
Y102953
X67126
Y85236
X146181Y143701
X156181
X157874Y67205
Y57205
T08
X25212Y39355
X32283Y32283
X39355Y25212
X84646Y29528
X94646
X104646
X114646
X29528Y73543
Y83543
Y93543
Y103543
Y113543
Y123543
X167323Y118425
Y108425
Y98425
Y88425
Y78425
X171638Y39355
X164567Y32283
X157496Y25212
X171638Y157496
X164567Y164567
X157496Y171638
X39355Y171638
X32283Y164567
X25212Y157496
M30
